<svg width="101" height="100" viewBox="0 0 101 100" fill="none" xmlns="http://www.w3.org/2000/svg">
<g clip-path="url(#clip0_640_39783)">
<path d="M84.1564 54.6437L60.4843 30.9716C55.8352 26.3226 48.2976 26.3226 43.6485 30.9716L19.9764 54.6437C15.3273 59.2928 15.3273 66.8305 19.9764 71.4796L43.6485 95.1517C48.2976 99.8008 55.8352 99.8008 60.4843 95.1517L84.1564 71.4796C88.8055 66.8305 88.8055 59.2928 84.1564 54.6437Z" fill="#FDF0E9"/>
<path d="M13.9454 47.3889L12.07 46.3062C11.5006 45.9774 10.7726 46.1725 10.4438 46.7419L9.36109 48.6173C9.03235 49.1867 9.22743 49.9148 9.79683 50.2435L11.6722 51.3262C12.2416 51.655 12.9697 51.4599 13.2984 50.8905L14.3811 49.0151C14.7099 48.4457 14.5148 47.7177 13.9454 47.3889Z" fill="#FDF0E9"/>
<path d="M21.0696 25.9283L17.1722 26.7572C16.5291 26.894 16.1187 27.5262 16.2555 28.1693L17.0843 32.0667C17.2211 32.7098 17.8533 33.1202 18.4964 32.9835L22.3938 32.1546C23.0369 32.0178 23.4473 31.3856 23.3106 30.7425L22.4817 26.8451C22.3449 26.202 21.7127 25.7916 21.0696 25.9283Z" fill="#FDF0E9"/>
<path d="M96.0755 43.671L93.9574 44.1215C93.3143 44.2583 92.9038 44.8905 93.0406 45.5336L93.4911 47.6517C93.6279 48.2948 94.2601 48.7052 94.9032 48.5685L97.0213 48.118C97.6644 47.9812 98.0748 47.349 97.9381 46.7059L97.4876 44.5878C97.3508 43.9447 96.7186 43.5342 96.0755 43.671Z" fill="#FDF0E9"/>
<path d="M40.6311 16.6911L36.6728 19.0695C36.1092 19.4081 35.9269 20.1395 36.2655 20.7031L38.6439 24.6613C38.9825 25.2249 39.7139 25.4073 40.2774 25.0686L44.2357 22.6903C44.7993 22.3516 44.9816 21.6202 44.643 21.0567L42.2646 17.0984C41.926 16.5348 41.1946 16.3525 40.6311 16.6911Z" fill="#FDF0E9"/>
<path d="M3.94032 23.9365L2.05704 23.7717C1.40206 23.7144 0.82464 24.1989 0.767337 24.8539L0.602571 26.7372C0.545268 27.3922 1.02978 27.9696 1.68476 28.0269L3.56804 28.1917C4.22302 28.249 4.80044 27.7645 4.85775 27.1095L5.02251 25.2262C5.07982 24.5712 4.5953 23.9938 3.94032 23.9365Z" fill="#FDF0E9"/>
<path d="M99.3153 16.6982L97.432 16.5334C96.7771 16.4761 96.1996 16.9607 96.1423 17.6156L95.9776 19.4989C95.9203 20.1539 96.4048 20.7313 97.0598 20.7886L98.943 20.9534C99.598 21.0107 100.175 20.5262 100.233 19.8712L100.398 17.9879C100.455 17.3329 99.9703 16.7555 99.3153 16.6982Z" fill="#FDF0E9"/>
<path d="M39.0927 3.84079L37.2094 3.67602C36.5544 3.61872 35.977 4.10323 35.9197 4.75821L35.7549 6.64149C35.6976 7.29647 36.1821 7.87389 36.8371 7.9312L38.7204 8.09596C39.3754 8.15327 39.9528 7.66875 40.0101 7.01377L40.1749 5.13049C40.2322 4.47551 39.7476 3.89809 39.0927 3.84079Z" fill="#FDF0E9"/>
<path d="M67.0731 21.3261L65.1899 21.1614C64.5349 21.1041 63.9575 21.5886 63.9001 22.2436L63.7354 24.1268C63.6781 24.7818 64.1626 25.3592 64.8176 25.4165L66.7009 25.5813C67.3558 25.6386 67.9333 25.1541 67.9906 24.4991L68.1553 22.6158C68.2126 21.9609 67.7281 21.3834 67.0731 21.3261Z" fill="#FDF0E9"/>
<path d="M85.6461 24.7348L82.342 23.0512C81.7561 22.7527 81.0393 22.9856 80.7408 23.5715L79.0572 26.8756C78.7587 27.4614 78.9916 28.1783 79.5774 28.4768L82.8816 30.1604C83.4674 30.4589 84.1842 30.2259 84.4827 29.6401L86.1663 26.336C86.4648 25.7502 86.2319 25.0333 85.6461 24.7348Z" fill="#FDF0E9"/>
<path d="M84.6037 8.32448L83.3491 8.66063C82.7141 8.8308 82.3372 9.48358 82.5073 10.1187L82.8435 11.3732C83.0137 12.0083 83.6664 12.3852 84.3015 12.215L85.5561 11.8789C86.1912 11.7087 86.568 11.0559 86.3979 10.4208L86.0617 9.16627C85.8915 8.53119 85.2388 8.15431 84.6037 8.32448Z" fill="#FDF0E9"/>
<path d="M17.3771 9.00612L16.1226 9.34227C15.4875 9.51244 15.1106 10.1652 15.2808 10.8003L15.6169 12.0549C15.7871 12.6899 16.4399 13.0668 17.075 12.8967L18.3295 12.5605C18.9646 12.3903 19.3415 11.7375 19.1713 11.1025L18.8352 9.84791C18.665 9.21283 18.0122 8.83595 17.3771 9.00612Z" fill="#FDF0E9"/>
<path d="M61.5295 6.07448L60.2749 6.41063C59.6398 6.5808 59.2629 7.23358 59.4331 7.86866L59.7693 9.12322C59.9394 9.75829 60.5922 10.1352 61.2273 9.96501L62.4819 9.62885C63.1169 9.45868 63.4938 8.8059 63.3237 8.17082L62.9875 6.91627C62.8173 6.28119 62.1645 5.90431 61.5295 6.07448Z" fill="#FDF0E9"/>
<path d="M67.6688 17.4199H59.2307C56.5854 17.4199 55.6819 18.8056 54.8878 20.9378C52.7611 28.2952 51.1998 35.8043 50.2176 43.3997C49.3174 51.6892 48.9377 60.027 49.0807 68.364C49.1807 71.0271 49.9664 71.8818 51.9092 71.8818H54.0104C55.9533 71.8818 57.0319 69.9354 57.2914 68.364C58.707 60.2378 60.5911 52.2002 62.9342 44.2914C65.2706 36.7532 68.0156 29.3478 71.1569 22.108C72.7819 18.7461 69.6116 17.4199 67.6688 17.4199Z" fill="#FFA70F"/>
<path d="M60.5835 81.1325C61.9662 84.5548 59.7287 88.6861 55.5858 90.3599C51.4429 92.0337 46.9635 90.6163 45.5808 87.194C44.1981 83.7716 46.4356 79.6404 50.5785 77.9666C54.7214 76.2927 59.2008 77.7102 60.5835 81.1325Z" fill="#FFA70F"/>
</g>
<defs>
<clipPath id="clip0_640_39783">
<rect width="100" height="100" fill="white" transform="translate(0.5)"/>
</clipPath>
</defs>
</svg>
