<svg width="42" height="26" viewBox="0 0 42 26" fill="none" xmlns="http://www.w3.org/2000/svg">
<g clip-path="url(#clip0_3456_18507)">
<rect width="42" height="26" rx="2.47059" fill="#006FCF"/>
<path d="M0 12.2067H2.05548L2.52 11.1285H3.55572L4.01772 12.2067H8.064V11.3836L8.4252 12.2099H10.5252L10.8864 11.3714V12.2067H20.9311L20.9261 10.4395H21.1201C21.2562 10.4443 21.2957 10.4565 21.2957 10.6727V12.2067H26.4936V11.7955C27.0937 12.0819 27.7567 12.2229 28.4256 12.2067H30.6096L31.08 11.1285H32.1174L32.5727 12.2067H36.7861V11.1837L37.4245 12.2067H40.8005V5.44666H37.459V6.24535L36.9911 5.44666H33.5622V6.24535L33.1321 5.44666H28.5012C27.8085 5.41492 27.1185 5.55063 26.4936 5.84153V5.44666H23.3016V5.84153C22.9145 5.55274 22.4309 5.41214 21.9433 5.44666H10.2673L9.4836 7.19272L8.67888 5.44666H4.99716V6.24535L4.59312 5.44666H1.45656L0 8.65847V12.2067ZM12.9721 11.2317H11.739L11.7348 7.43565L9.99012 11.2317H8.93424L7.18536 7.43241V11.2317H4.73928L4.27728 10.1502H1.77324L1.3062 11.2317H0L2.15376 6.38509H3.94044L5.98584 10.9741V6.38266H7.94976L9.52392 9.67084L10.9696 6.38266H12.9721V11.2317ZM3.864 9.14272L3.0408 7.21059L2.22264 9.14272H3.864ZM17.8794 11.2317H13.86V6.38266H17.8777V7.39178H15.0637V8.26522H17.808V9.25891H15.0637V10.2266H17.8786L17.8794 11.2317ZM23.5418 7.68997C23.5501 7.96256 23.4739 8.23131 23.3228 8.46157C23.1717 8.69183 22.9528 8.87304 22.6943 8.98184C22.9262 9.06393 23.1315 9.20412 23.289 9.38809C23.4566 9.65439 23.5267 9.96746 23.4881 10.277V11.2317H22.2743L22.2701 10.6207C22.3197 10.2942 22.2528 9.96117 22.0802 9.67653C21.9554 9.58783 21.8136 9.52386 21.6631 9.4883C21.5126 9.45275 21.3564 9.4463 21.2033 9.46934H19.9122V11.2325H18.7102V6.38266H21.4763C21.9745 6.33473 22.4769 6.41488 22.9328 6.61503C23.1303 6.71837 23.2927 6.87458 23.4008 7.06494C23.5088 7.2553 23.5577 7.47175 23.5418 7.68835V7.68997ZM22.0214 8.40985C21.8364 8.49523 21.6307 8.5298 21.4267 8.50978H19.9651V7.43322H21.446C21.6407 7.41857 21.8361 7.44864 22.0164 7.52097C22.0975 7.56026 22.1647 7.6219 22.2095 7.69811C22.2544 7.77432 22.2749 7.86169 22.2684 7.94916C22.275 8.04035 22.2553 8.13152 22.2115 8.21255C22.1678 8.29358 22.1017 8.3613 22.0206 8.40822L22.0214 8.40985ZM25.4705 11.2317H24.2432V6.38266H25.4705V11.2317ZM39.7169 11.2317H38.0125L35.7328 7.59409V11.2317H33.2833L32.8154 10.1502H30.3164L29.862 11.2317H28.455C28.1238 11.2758 27.7864 11.2438 27.4704 11.1382C27.1544 11.0326 26.8685 10.8564 26.636 10.624C26.4036 10.3915 26.231 10.1093 26.1324 9.80029C26.0338 9.49126 26.012 9.16409 26.0686 8.84534C26.0406 8.50353 26.0835 8.15975 26.1949 7.83422C26.3063 7.5087 26.4838 7.20799 26.717 6.94978C26.9662 6.74081 27.2565 6.58271 27.5705 6.48498C27.8845 6.38724 28.2156 6.35189 28.544 6.38103H29.7083V7.41941H28.5676C28.4013 7.3999 28.2326 7.41544 28.0731 7.46494C27.9136 7.51445 27.7671 7.59676 27.6436 7.70622C27.3915 8.01794 27.2681 8.40916 27.2975 8.8039C27.2614 9.20936 27.379 9.61367 27.6284 9.9414C27.8638 10.1279 28.1654 10.2177 28.4684 10.1917H29.0086L30.7037 6.38022H32.5055L34.5416 10.9643V6.38266H36.372L38.4863 9.75778V6.38266H39.7186L39.7169 11.2317ZM32.4089 9.14516L31.5764 7.21303L30.749 9.14516H32.4089Z" fill="white"/>
<path d="M42.7786 18.9681C42.5792 19.192 42.3263 19.3656 42.0419 19.4736C41.7575 19.5816 41.4501 19.6209 41.1465 19.588H38.8306V18.5488H41.144C41.316 18.5696 41.4897 18.5266 41.6303 18.4286C41.6755 18.3884 41.7114 18.3395 41.7358 18.2851C41.7603 18.2306 41.7727 18.1719 41.7723 18.1125C41.7748 18.0517 41.7629 17.9911 41.7374 17.9355C41.7119 17.8799 41.6736 17.8306 41.6253 17.7916C41.5035 17.7074 41.3541 17.6692 41.2053 17.6843C40.0763 17.647 38.6668 17.7176 38.6668 16.1836C38.6668 15.4808 39.1305 14.7406 40.3922 14.7406H42.7786V13.7762H40.5526C40.0202 13.7508 39.4932 13.8893 39.0473 14.1719V13.7762H35.7545C35.2432 13.7487 34.737 13.888 34.3173 14.1719V13.7762H28.4373V14.1719C27.9436 13.9005 27.383 13.7638 26.8153 13.7762H22.937V14.1719C22.4312 13.8658 21.8363 13.7269 21.2419 13.7762H16.9066L15.9137 14.8113L14.9839 13.7762H8.50073V20.5403H14.8621L15.8852 19.4889L16.8495 20.5403H20.7706V18.9518H21.1562C21.7255 18.986 22.296 18.9049 22.8311 18.7138V20.5394H26.0651V18.7763H26.2214C26.4205 18.7763 26.4398 18.7845 26.4398 18.9762V20.5394H36.2678C36.8466 20.5617 37.4184 20.4105 37.9049 20.1064V20.5394H41.0213C41.6257 20.5598 42.2275 20.4533 42.7853 20.2274V18.9681H42.7786ZM23.2973 16.3681C23.2973 17.7144 22.2541 17.9931 21.2032 17.9931H19.7021V19.6181H17.3644L15.8835 18.0134L14.3446 19.6181H9.58014V14.7699H14.4177L15.8978 16.3591L17.4274 14.7699H21.2746C22.228 14.7691 23.3007 15.0193 23.3007 16.3656L23.2973 16.3681ZM13.7381 18.5943H10.7813V17.6299H13.4215V16.6443H10.7813V15.7628H13.7969L15.1124 17.1757L13.7381 18.5943ZM18.5026 19.1493L16.6546 17.1749L18.5026 15.2631V19.1493ZM21.2335 16.9937H19.6786V15.7595H21.2469C21.6812 15.7595 21.9827 15.9301 21.9827 16.3543C21.9827 16.7784 21.6946 16.9961 21.2343 16.9961L21.2335 16.9937ZM29.3764 14.7658H33.3908V15.7685H30.5742V16.65H33.3219V17.6388H30.5742V18.6033L33.3908 18.6073V19.6132H29.3764V14.7658ZM27.8333 17.361C28.0649 17.4402 28.2687 17.581 28.4213 17.7672C28.5867 18.0329 28.6567 18.3439 28.6204 18.652V19.6132H27.4125V19.0063C27.4125 18.7146 27.4419 18.2831 27.2185 18.0573C27.0937 17.9662 26.9514 17.9003 26.8 17.8633C26.6485 17.8263 26.4909 17.8191 26.3365 17.842H25.0546V19.6124H23.8459V14.7642H26.6229C27.1175 14.7231 27.6149 14.8019 28.0702 14.9933C28.2692 15.0964 28.4333 15.2528 28.543 15.4437C28.6526 15.6346 28.7031 15.852 28.6885 16.0699C28.6975 16.3438 28.6207 16.6139 28.4681 16.8448C28.3154 17.0757 28.0942 17.2565 27.8333 17.3634V17.361ZM27.1538 16.7483C26.9685 16.8319 26.7635 16.8664 26.5599 16.8483H25.0991V15.7595H26.5801C26.7759 15.7425 26.973 15.7726 27.1538 15.8473C27.2347 15.8888 27.3016 15.9521 27.3463 16.0295C27.391 16.1069 27.4116 16.1951 27.4058 16.2836C27.4104 16.376 27.3896 16.4679 27.3455 16.55C27.3014 16.6321 27.2355 16.7014 27.1546 16.7508L27.1538 16.7483ZM38.0116 17.0571C38.1419 17.1948 38.2412 17.3572 38.3031 17.534C38.3649 17.7108 38.3881 17.8981 38.3711 18.0841C38.3711 19.1273 37.6949 19.614 36.482 19.614H34.1392V18.5748H36.4727C36.6463 18.5947 36.8213 18.5519 36.9641 18.4546C37.0091 18.4142 37.0449 18.3654 37.0694 18.3109C37.0938 18.2565 37.1063 18.1978 37.1061 18.1385C37.1073 18.0779 37.0948 18.0177 37.0694 17.9623C37.044 17.9068 37.0063 17.8574 36.9591 17.8176C36.8342 17.7333 36.6822 17.6952 36.5307 17.7103C35.4059 17.673 33.9972 17.7436 33.9972 16.2096C33.9972 15.5068 34.4559 14.7667 35.7167 14.7667H38.1284V15.7985H35.9217C35.7555 15.7792 35.5871 15.8098 35.4395 15.8863C35.3774 15.9282 35.3282 15.9856 35.2971 16.0523C35.266 16.1191 35.2541 16.1928 35.2627 16.2656C35.2713 16.3383 35.3001 16.4075 35.346 16.4657C35.3919 16.524 35.4533 16.5691 35.5235 16.5964C35.6751 16.6405 35.8333 16.6592 35.9914 16.6516L36.639 16.6687C37.1313 16.6256 37.622 16.7653 38.0116 17.0595V17.0571ZM42.7845 15.7571H40.5946C40.4271 15.7384 40.2576 15.769 40.1083 15.8448C40.0491 15.8821 40.0015 15.9342 39.9706 15.9956C39.9397 16.057 39.9266 16.1254 39.9327 16.1934C39.9299 16.273 39.9541 16.3514 40.0015 16.4165C40.049 16.4816 40.1171 16.5299 40.1956 16.5541C40.3458 16.598 40.5026 16.6167 40.6593 16.6094L41.3111 16.6265C41.8011 16.5811 42.2903 16.7208 42.6761 17.0165C42.7186 17.0517 42.7562 17.0921 42.7879 17.1367L42.7845 15.7571Z" fill="white"/>
</g>
<defs>
<clipPath id="clip0_3456_18507">
<rect width="42" height="26" rx="2.47059" fill="white"/>
</clipPath>
</defs>
</svg>
