<svg width="20" height="20" viewBox="0 0 20 20" fill="none" xmlns="http://www.w3.org/2000/svg">
<path d="M7.24349 3.98607C7.41293 4.14456 7.50872 4.35938 7.51001 4.58376C7.51131 4.80815 7.418 5.02392 7.2504 5.18413L3.02819 9.14865H19.0973C19.3367 9.14865 19.5663 9.2378 19.7356 9.3965C19.9049 9.5552 20 9.77045 20 9.99488C20 10.2193 19.9049 10.4346 19.7356 10.5933C19.5663 10.752 19.3367 10.8411 19.0973 10.8411H3.0351L7.25732 14.8093C7.42349 14.9702 7.51583 15.1857 7.51453 15.4097C7.51324 15.6336 7.41842 15.8482 7.2504 16.0074C7.16649 16.0852 7.06705 16.1468 6.95775 16.1886C6.84846 16.2304 6.73145 16.2516 6.61342 16.251C6.49538 16.2504 6.37863 16.228 6.26982 16.1851C6.16102 16.1422 6.0623 16.0796 5.9793 16.0009L0.25684 10.5976C0.178681 10.5193 0.115232 10.4291 0.0691859 10.331C0.0222844 10.228 -0.00125904 10.117 5.05447e-05 10.0051C-0.000126714 9.7837 0.0920306 9.57105 0.25684 9.41252L5.9793 4.00921C6.06032 3.9293 6.15745 3.86525 6.26507 3.82079C6.37269 3.77632 6.48865 3.75231 6.60624 3.75016C6.72382 3.74801 6.8407 3.76775 6.95008 3.80824C7.05947 3.84874 7.1592 3.90918 7.24349 3.98607Z" fill="#767676"/>
</svg>
