<svg width="42" height="26" viewBox="0 0 42 26" fill="none" xmlns="http://www.w3.org/2000/svg">
<rect width="42" height="26" rx="2.47059" fill="#949494"/>
<path d="M29.4434 7.87623C28.5687 7.56996 27.6444 7.41611 26.7142 7.42204C23.7053 7.42204 21.586 8.88455 21.5675 10.9881C21.5507 12.5408 23.0795 13.4069 24.2362 13.9237C25.4215 14.4534 25.8196 14.7914 25.8146 15.2643C25.807 15.989 24.8679 16.3205 23.9926 16.3205C23.0046 16.3481 22.0235 16.1534 21.1265 15.7518L20.7343 15.5804L20.3067 17.9992C21.3924 18.3868 22.5413 18.5822 23.6986 18.576C26.8999 18.576 28.978 17.1274 29.0015 14.884C29.0133 13.6547 28.2019 12.7195 26.4446 11.9477C25.3803 11.448 24.7285 11.114 24.7352 10.6079C24.7352 10.1585 25.2871 9.67836 26.479 9.67836C27.2602 9.66167 28.0364 9.80279 28.7579 10.0927L29.0309 10.217L29.4434 7.87623Z" fill="white"/>
<path d="M17.3037 7.64386L15.3994 18.4501H18.4435L20.3487 7.64386H17.3037Z" fill="white"/>
<path fill-rule="evenodd" clip-rule="evenodd" d="M37.2789 7.64304H34.9269C34.5962 7.60087 34.2604 7.66566 33.9717 7.82731C33.6831 7.98896 33.4578 8.23841 33.3309 8.53679L28.8109 18.4428H32.0029C32.0029 18.4428 32.5254 17.1111 32.6438 16.8178L36.5439 16.8227C36.6346 17.2013 36.9143 18.442 36.9143 18.442H39.7401L37.2789 7.64304ZM33.5459 14.6208C33.7979 13.9984 34.7589 11.5999 34.7589 11.5999C34.7512 11.6124 34.7989 11.4931 34.8678 11.3209C34.9556 11.1015 35.0778 10.7959 35.163 10.5689L35.3688 11.5008C35.3688 11.5008 35.9517 14.0805 36.0735 14.6216H33.5459V14.6208Z" fill="white"/>
<path d="M2.10059 7.86891L2.13922 7.64384L7.04986 7.64709C7.35494 7.61292 7.66252 7.6864 7.91607 7.85403C8.16962 8.02166 8.35211 8.27217 8.42999 8.55953L9.46654 13.3817C9.48334 13.4272 9.4993 13.4735 9.51358 13.519L9.8311 15.0165L12.8123 7.64709H16.0387L11.2448 18.433H8.02258L5.3203 9.06571C4.308 8.52768 3.22487 8.12507 2.10059 7.86891Z" fill="white"/>
</svg>
