<svg width="42" height="26" viewBox="0 0 42 26" fill="none" xmlns="http://www.w3.org/2000/svg">
<g clip-path="url(#clip0_640_40364)">
<rect width="42" height="26" rx="2.47059" fill="#949494"/>
<path d="M0 12.2068H2.05548L2.52 11.1286H3.55572L4.01772 12.2068H8.064V11.3837L8.4252 12.21H10.5252L10.8864 11.3715V12.2068H20.9311L20.9261 10.4396H21.1201C21.2562 10.4445 21.2957 10.4567 21.2957 10.6728V12.2068H26.4936V11.7957C27.0937 12.082 27.7567 12.2231 28.4256 12.2068H30.6096L31.08 11.1286H32.1174L32.5727 12.2068H36.7861V11.1838L37.4245 12.2068H40.8005V5.44678H37.459V6.24547L36.9911 5.44678H33.5622V6.24547L33.1321 5.44678H28.5012C27.8085 5.41504 27.1185 5.55075 26.4936 5.84165V5.44678H23.3016V5.84165C22.9145 5.55286 22.4309 5.41227 21.9433 5.44678H10.2673L9.4836 7.19284L8.67888 5.44678H4.99716V6.24547L4.59312 5.44678H1.45656L0 8.65859V12.2068ZM12.9721 11.2318H11.739L11.7348 7.43578L9.99012 11.2318H8.93424L7.18536 7.43253V11.2318H4.73928L4.27728 10.1503H1.77324L1.3062 11.2318H0L2.15376 6.38521H3.94044L5.98584 10.9742V6.38278H7.94976L9.52392 9.67096L10.9696 6.38278H12.9721V11.2318ZM3.864 9.14284L3.0408 7.21071L2.22264 9.14284H3.864ZM17.8794 11.2318H13.86V6.38278H17.8777V7.3919H15.0637V8.26534H17.808V9.25903H15.0637V10.2267H17.8786L17.8794 11.2318ZM23.5418 7.69009C23.5501 7.96268 23.4739 8.23143 23.3228 8.46169C23.1717 8.69195 22.9528 8.87316 22.6943 8.98196C22.9262 9.06405 23.1315 9.20424 23.289 9.38821C23.4566 9.65451 23.5267 9.96759 23.4881 10.2771V11.2318H22.2743L22.2701 10.6208C22.3197 10.2943 22.2528 9.96129 22.0802 9.67665C21.9554 9.58795 21.8136 9.52398 21.6631 9.48843C21.5126 9.45287 21.3564 9.44642 21.2033 9.46946H19.9122V11.2326H18.7102V6.38278H21.4763C21.9745 6.33485 22.4769 6.41501 22.9328 6.61515C23.1303 6.71849 23.2927 6.8747 23.4008 7.06506C23.5088 7.25542 23.5577 7.47187 23.5418 7.68847V7.69009ZM22.0214 8.40997C21.8364 8.49535 21.6307 8.52992 21.4267 8.5099H19.9651V7.43334H21.446C21.6407 7.41869 21.8361 7.44876 22.0164 7.52109C22.0975 7.56038 22.1647 7.62202 22.2095 7.69823C22.2544 7.77444 22.2749 7.86181 22.2684 7.94928C22.275 8.04047 22.2553 8.13164 22.2115 8.21267C22.1678 8.2937 22.1017 8.36143 22.0206 8.40834L22.0214 8.40997ZM25.4705 11.2318H24.2432V6.38278H25.4705V11.2318ZM39.7169 11.2318H38.0125L35.7328 7.59421V11.2318H33.2833L32.8154 10.1503H30.3164L29.862 11.2318H28.455C28.1238 11.2759 27.7864 11.2439 27.4704 11.1383C27.1544 11.0327 26.8685 10.8566 26.636 10.6241C26.4036 10.3916 26.231 10.1095 26.1324 9.80042C26.0338 9.49138 26.012 9.16421 26.0686 8.84546C26.0406 8.50365 26.0835 8.15987 26.1949 7.83435C26.3063 7.50882 26.4838 7.20811 26.717 6.9499C26.9662 6.74093 27.2565 6.58283 27.5705 6.4851C27.8845 6.38736 28.2156 6.35201 28.544 6.38115H29.7083V7.41953H28.5676C28.4013 7.40002 28.2326 7.41556 28.0731 7.46507C27.9136 7.51457 27.7671 7.59688 27.6436 7.70634C27.3915 8.01806 27.2681 8.40928 27.2975 8.80402C27.2614 9.20948 27.379 9.61379 27.6284 9.94153C27.8638 10.128 28.1654 10.2178 28.4684 10.1918H29.0086L30.7037 6.38034H32.5055L34.5416 10.9645V6.38278H36.372L38.4863 9.7579V6.38278H39.7186L39.7169 11.2318ZM32.4089 9.14528L31.5764 7.21315L30.749 9.14528H32.4089Z" fill="white"/>
<path d="M42.7779 18.9682C42.5785 19.1922 42.3256 19.3657 42.0412 19.4737C41.7568 19.5817 41.4494 19.621 41.1458 19.5881H38.8299V18.549H41.1432C41.3152 18.5697 41.489 18.5268 41.6296 18.4287C41.6747 18.3885 41.7107 18.3396 41.7351 18.2852C41.7596 18.2308 41.772 18.172 41.7716 18.1126C41.7741 18.0518 41.7622 17.9913 41.7367 17.9356C41.7112 17.88 41.6728 17.8307 41.6246 17.7917C41.5028 17.7075 41.3534 17.6694 41.2046 17.6845C40.0756 17.6471 38.6661 17.7178 38.6661 16.1838C38.6661 15.481 39.1298 14.7408 40.3914 14.7408H42.7779V13.7763H40.5519C40.0195 13.7509 39.4925 13.8894 39.0466 14.172V13.7763H35.7538C35.2424 13.7488 34.7363 13.8881 34.3166 14.172V13.7763H28.4366V14.172C27.9428 13.9006 27.3823 13.7639 26.8145 13.7763H22.9362V14.172C22.4305 13.8659 21.8356 13.7271 21.2411 13.7763H16.9059L15.913 14.8115L14.9831 13.7763H8.5V20.5404H14.8613L15.8844 19.489L16.8488 20.5404H20.7699V18.952H21.1554C21.7248 18.9862 22.2953 18.9051 22.8304 18.7139V20.5396H26.0644V18.7765H26.2206C26.4197 18.7765 26.439 18.7846 26.439 18.9763V20.5396H36.267C36.8459 20.5619 37.4177 20.4106 37.9042 20.1065V20.5396H41.0206C41.625 20.5599 42.2268 20.4534 42.7846 20.2276V18.9682H42.7779ZM23.2966 16.3682C23.2966 17.7145 22.2533 17.9932 21.2025 17.9932H19.7014V19.6182H17.3637L15.8828 18.0135L14.3439 19.6182H9.5794V14.77H14.417L15.897 16.3593L17.4267 14.77H21.2739C22.2273 14.7692 23.3 15.0195 23.3 16.3658L23.2966 16.3682ZM13.7374 18.5945H10.7806V17.63H13.4207V16.6445H10.7806V15.7629H13.7962L15.1116 17.1758L13.7374 18.5945ZM18.5019 19.1494L16.6539 17.175L18.5019 15.2632V19.1494ZM21.2327 16.9938H19.6779V15.7596H21.2462C21.6804 15.7596 21.982 15.9303 21.982 16.3544C21.982 16.7785 21.6939 16.9963 21.2336 16.9963L21.2327 16.9938ZM29.3757 14.766H33.39V15.7686H30.5735V16.6501H33.3212V17.639H30.5735V18.6034L33.39 18.6075V19.6133H29.3757V14.766ZM27.8326 17.3611C28.0642 17.4404 28.268 17.5812 28.4206 17.7673C28.5859 18.033 28.6559 18.344 28.6197 18.6521V19.6133H27.4118V19.0064C27.4118 18.7147 27.4412 18.2833 27.2177 18.0574C27.093 17.9664 26.9507 17.9004 26.7992 17.8634C26.6478 17.8265 26.4902 17.8192 26.3357 17.8421H25.0539V19.6125H23.8451V14.7643H26.6222C27.1168 14.7233 27.6142 14.802 28.0695 14.9935C28.2685 15.0966 28.4326 15.2529 28.5422 15.4438C28.6519 15.6347 28.7024 15.8521 28.6877 16.07C28.6968 16.3439 28.62 16.614 28.4673 16.8449C28.3147 17.0758 28.0934 17.2566 27.8326 17.3635V17.3611ZM27.153 16.7485C26.9677 16.832 26.7628 16.8665 26.5592 16.8484H25.0984V15.7596H26.5793C26.7751 15.7426 26.9722 15.7727 27.153 15.8474C27.234 15.889 27.3008 15.9522 27.3455 16.0296C27.3902 16.107 27.4109 16.1952 27.405 16.2837C27.4097 16.3761 27.3889 16.4681 27.3448 16.5501C27.3006 16.6322 27.2348 16.7015 27.1539 16.7509L27.153 16.7485ZM38.0109 17.0572C38.1412 17.1949 38.2404 17.3573 38.3023 17.5341C38.3642 17.7109 38.3874 17.8983 38.3704 18.0842C38.3704 19.1275 37.6942 19.6142 36.4812 19.6142H34.1385V18.575H36.472C36.6455 18.5948 36.8205 18.552 36.9634 18.4547C37.0084 18.4144 37.0442 18.3655 37.0686 18.3111C37.0931 18.2567 37.1056 18.198 37.1054 18.1386C37.1066 18.078 37.094 18.0179 37.0686 17.9624C37.0433 17.907 37.0056 17.8576 36.9584 17.8177C36.8335 17.7334 36.6814 17.6954 36.53 17.7104C35.4052 17.6731 33.9965 17.7438 33.9965 16.2098C33.9965 15.5069 34.4552 14.7668 35.716 14.7668H38.1276V15.7986H35.921C35.7547 15.7793 35.5864 15.81 35.4388 15.8864C35.3767 15.9283 35.3275 15.9857 35.2964 16.0525C35.2652 16.1192 35.2533 16.1929 35.2619 16.2657C35.2706 16.3384 35.2993 16.4076 35.3453 16.4659C35.3912 16.5241 35.4525 16.5692 35.5228 16.5965C35.6744 16.6406 35.8326 16.6593 35.9907 16.6518L36.6383 16.6688C37.1306 16.6257 37.6213 16.7655 38.0109 17.0596V17.0572ZM42.7838 15.7572H40.5939C40.4263 15.7386 40.2569 15.7691 40.1075 15.845C40.0484 15.8822 40.0008 15.9343 39.9699 15.9957C39.9389 16.0571 39.9258 16.1255 39.932 16.1935C39.9292 16.2731 39.9533 16.3515 40.0008 16.4166C40.0483 16.4817 40.1164 16.5301 40.1949 16.5543C40.3451 16.5981 40.5019 16.6168 40.6586 16.6095L41.3104 16.6266C41.8004 16.5812 42.2895 16.721 42.6754 17.0166C42.7179 17.0518 42.7554 17.0922 42.7871 17.1368L42.7838 15.7572Z" fill="white"/>
</g>
<defs>
<clipPath id="clip0_640_40364">
<rect width="42" height="26" rx="2.47059" fill="white"/>
</clipPath>
</defs>
</svg>
