<svg width="42" height="26" viewBox="0 0 42 26" fill="none" xmlns="http://www.w3.org/2000/svg">
<g clip-path="url(#clip0_640_40368)">
<rect width="42" height="26" rx="2.47059" fill="#949494"/>
<path d="M17.048 8.12694C17.5303 8.12582 18.0058 8.23732 18.434 8.45194V9.67069C18.2535 9.48266 18.0349 9.3326 17.7918 9.22985C17.5488 9.12711 17.2864 9.07389 17.0211 9.07351C16.7728 9.07123 16.5264 9.11685 16.2964 9.20769C16.0665 9.29853 15.8576 9.43277 15.6818 9.60258C15.5061 9.77239 15.3672 9.97438 15.273 10.1967C15.1789 10.4191 15.1315 10.6573 15.1337 10.8976C15.1367 11.2664 15.2538 11.626 15.47 11.9299C15.6861 12.2338 15.9915 12.4681 16.3466 12.6026C16.7017 12.7372 17.0903 12.7658 17.4623 12.6847C17.8344 12.6037 18.1728 12.4168 18.434 12.148V13.3668C17.9931 13.5714 17.5102 13.6773 17.0211 13.6763C16.6316 13.6927 16.2427 13.6336 15.8772 13.5024C15.5117 13.3712 15.177 13.1705 14.8929 12.9122C14.6088 12.6539 14.3811 12.3433 14.223 11.9985C14.065 11.6538 13.9799 11.2819 13.9728 10.9049C13.9851 10.5269 14.0746 10.1549 14.236 9.81045C14.3975 9.46598 14.6277 9.15576 14.9134 8.89762C15.1992 8.63948 15.5349 8.4385 15.9012 8.30625C16.2675 8.17399 16.6573 8.11305 17.048 8.12694ZM11.7216 8.16025C12.3419 8.15473 12.944 8.36363 13.4192 8.74932L12.8312 9.45863C12.7218 9.32664 12.5836 9.21967 12.4265 9.14536C12.2694 9.07106 12.0972 9.03126 11.9223 9.02881C11.4368 9.02881 11.0823 9.28312 11.0823 9.61706C11.0823 9.90387 11.2806 10.0558 11.9568 10.2857C13.2386 10.7164 13.6183 11.0982 13.6183 11.9424C13.6167 12.1868 13.5626 12.4283 13.4594 12.6514C13.3562 12.8745 13.2061 13.0744 13.0187 13.2383C12.8313 13.4023 12.6107 13.5268 12.371 13.6039C12.1312 13.681 11.8774 13.709 11.6258 13.6861C11.2304 13.7004 10.8378 13.6147 10.4871 13.4375C10.1363 13.2602 9.83945 12.9975 9.62578 12.6753L10.3532 12.031C10.4684 12.2492 10.6449 12.4314 10.8625 12.5568C11.0801 12.6821 11.3298 12.7455 11.583 12.7395C11.6918 12.7485 11.8014 12.736 11.9051 12.7028C12.0088 12.6695 12.1044 12.6163 12.1862 12.5462C12.268 12.4762 12.3342 12.3908 12.3808 12.2952C12.4274 12.1997 12.4535 12.096 12.4574 11.9904C12.4571 11.8782 12.4258 11.7681 12.3667 11.6715C12.3076 11.575 12.2229 11.4954 12.1214 11.4411C11.8719 11.3178 11.6112 11.2166 11.3427 11.1389C10.2843 10.7887 9.92146 10.4141 9.92146 9.68288C9.93251 9.46727 9.98833 9.25601 10.0856 9.06169C10.1828 8.86738 10.3195 8.69397 10.4874 8.55182C10.6554 8.40967 10.8512 8.30168 11.0633 8.23426C11.2753 8.16685 11.4992 8.14221 11.7216 8.16025ZM24.5963 8.25287H25.8269L27.3674 11.8197L28.9273 8.25287H30.1487L27.653 13.6966H27.0465L24.5963 8.25287ZM2.80078 8.26101H4.45474C6.28174 8.26101 7.55602 9.353 7.55602 10.9203C7.55144 11.3146 7.45477 11.7027 7.27323 12.0557C7.0917 12.4087 6.83 12.7175 6.5077 12.9589C5.91831 13.3948 5.18713 13.6124 4.44634 13.5723H2.80078V8.26101ZM8.0743 8.26101H9.20074V13.5707H8.07514L8.0743 8.26101ZM30.6585 8.26101H33.8505V9.16044H31.7841V10.3394H33.7791V11.2388H31.7841V12.6721H33.8539V13.5707H30.6619L30.6585 8.26101ZM34.5998 8.26101H36.2706C37.5701 8.26101 38.3143 8.83463 38.3143 9.82913C38.3364 10.1953 38.2122 10.5558 37.9674 10.836C37.7226 11.1162 37.3759 11.2947 36.9989 11.3347L38.8191 13.5707H37.434L35.8749 11.4371H35.7279V13.5707H34.6023L34.5998 8.26101ZM35.7254 9.09706V10.705H36.0547C36.7737 10.705 37.1551 10.4182 37.1551 9.88356C37.1551 9.36681 36.7737 9.09626 36.0723 9.09626L35.7254 9.09706ZM3.92722 9.16044V12.6721H4.22962C4.78013 12.7229 5.33036 12.5725 5.77186 12.2504C5.96824 12.083 6.12548 11.8771 6.2331 11.6464C6.34072 11.4156 6.39625 11.1653 6.39598 10.9122C6.39604 10.6612 6.34027 10.4132 6.23243 10.185C6.12459 9.95674 5.96723 9.75363 5.77102 9.58944C5.33299 9.26008 4.78084 9.1062 4.22879 9.15962L3.92722 9.16044Z" fill="white"/>
<path d="M41.9803 14.625C40.5331 15.6054 29.691 22.6147 10.9199 26H39.4801C41.387 26 41.9999 24.904 41.9999 23.3085L41.9803 14.625Z" fill="#767676"/>
<ellipse cx="21.8404" cy="10.9688" rx="2.94" ry="2.84375" fill="#767676"/>
</g>
<defs>
<clipPath id="clip0_640_40368">
<rect width="42" height="26" rx="2.47059" fill="white"/>
</clipPath>
</defs>
</svg>
