<svg width="42" height="26" viewBox="0 0 42 26" fill="none" xmlns="http://www.w3.org/2000/svg">
<rect width="42" height="26" rx="2.47059" fill="#949494"/>
<path d="M16.2822 5.50195H25.786V20.4966H16.2822V5.50195Z" fill="#ADADAD"/>
<path d="M17.2408 13.0011C17.2412 11.5586 17.5789 10.135 18.2287 8.83667C18.8785 7.53837 19.8236 6.39909 20.9931 5.50414C19.5386 4.39803 17.7917 3.71007 15.9521 3.51892C14.1125 3.32777 12.2544 3.64113 10.5903 4.42318C8.92607 5.20524 7.52295 6.42443 6.5413 7.94139C5.55964 9.45835 5.03906 11.2119 5.03906 13.0015C5.03906 14.7911 5.55964 16.5446 6.5413 18.0616C7.52295 19.5785 8.92607 20.7977 10.5903 21.5798C12.2544 22.3618 14.1125 22.6752 15.9521 22.4841C17.7917 22.2929 19.5386 21.6049 20.9931 20.4988C19.8235 19.6038 18.8784 18.4644 18.2286 17.1659C17.5787 15.8675 17.2411 14.4437 17.2408 13.0011Z" fill="#CCCCCC"/>
<path d="M36.9617 13.0002C36.9626 14.7883 36.4432 16.5406 35.463 18.0567C34.4827 19.5727 33.0811 20.7913 31.4186 21.5731C29.756 22.355 27.8995 22.6685 26.0614 22.4777C24.2233 22.287 22.4777 21.5998 21.0244 20.4947C22.1942 19.5999 23.1395 18.4606 23.7894 17.1622C24.4392 15.8638 24.7768 14.4399 24.7768 12.9974C24.7768 11.5548 24.4392 10.131 23.7894 8.83253C23.1395 7.53411 22.1942 6.39481 21.0244 5.50003C22.4779 4.39478 24.2237 3.70755 26.062 3.51693C27.9003 3.32631 29.757 3.64 31.4197 4.42212C33.0824 5.20425 34.4839 6.42322 35.464 7.93962C36.4441 9.45603 36.9631 11.2086 36.9617 12.997V13.0002Z" fill="#CCCCCC"/>
</svg>
