<svg width="42" height="26" viewBox="0 0 42 26" fill="none" xmlns="http://www.w3.org/2000/svg">
<g clip-path="url(#clip0_3456_18508)">
<rect width="42" height="26" rx="2.625" fill="#404040"/>
<rect width="42" height="26" rx="2.625" fill="#EE6A2A"/>
<path d="M0.875 2.60003C0.875 1.64274 1.6585 0.866699 2.625 0.866699H27.125C33.8905 0.866699 39.375 6.29898 39.375 13C39.375 19.7011 33.8905 25.1334 27.125 25.1334H2.625C1.6585 25.1334 0.875 24.3573 0.875 23.4V2.60003Z" fill="white"/>
<path d="M16.2297 10.4018C16.6843 10.4008 17.1324 10.5059 17.5361 10.7082V11.8569C17.3659 11.6797 17.1599 11.5382 16.9308 11.4414C16.7017 11.3446 16.4544 11.2944 16.2044 11.294C15.9703 11.2919 15.7381 11.3349 15.5213 11.4205C15.3046 11.5061 15.1076 11.6327 14.942 11.7927C14.7764 11.9528 14.6454 12.1431 14.5567 12.3527C14.468 12.5623 14.4233 12.7868 14.4253 13.0133C14.4282 13.361 14.5386 13.6999 14.7423 13.9863C14.9461 14.2727 15.2339 14.4936 15.5685 14.6204C15.9032 14.7472 16.2695 14.7742 16.6202 14.6978C16.9709 14.6214 17.2899 14.4452 17.5361 14.1919V15.3406C17.1205 15.5336 16.6653 15.6333 16.2044 15.6324C15.8372 15.6479 15.4706 15.5922 15.1261 15.4685C14.7816 15.3448 14.4662 15.1556 14.1984 14.9122C13.9307 14.6688 13.716 14.3759 13.567 14.051C13.4181 13.7261 13.3379 13.3756 13.3312 13.0202C13.3428 12.6639 13.4271 12.3133 13.5793 11.9886C13.7314 11.664 13.9484 11.3716 14.2178 11.1283C14.4871 10.8849 14.8035 10.6955 15.1488 10.5709C15.4941 10.4462 15.8614 10.3888 16.2297 10.4018ZM11.2093 10.4332C11.794 10.428 12.3614 10.6249 12.8094 10.9885L12.2552 11.657C12.1521 11.5326 12.0218 11.4318 11.8737 11.3618C11.7256 11.2917 11.5633 11.2542 11.3985 11.2519C10.9409 11.2519 10.6068 11.4916 10.6068 11.8064C10.6068 12.0767 10.7936 12.2199 11.431 12.4366C12.6392 12.8425 12.997 13.2024 12.997 13.9981C12.9956 14.2285 12.9446 14.4561 12.8473 14.6663C12.75 14.8766 12.6085 15.065 12.4319 15.2196C12.2553 15.3741 12.0474 15.4915 11.8214 15.5641C11.5953 15.6368 11.3562 15.6632 11.119 15.6416C10.7463 15.6551 10.3763 15.5744 10.0457 15.4073C9.71512 15.2402 9.4353 14.9926 9.2339 14.6889L9.91955 14.0816C10.0281 14.2872 10.1945 14.459 10.3995 14.5772C10.6046 14.6953 10.84 14.755 11.0787 14.7494C11.1812 14.7579 11.2845 14.7461 11.3823 14.7148C11.48 14.6835 11.5702 14.6333 11.6472 14.5672C11.7243 14.5012 11.7867 14.4207 11.8306 14.3307C11.8746 14.2406 11.8992 14.1428 11.9029 14.0433C11.9025 13.9376 11.873 13.8338 11.8173 13.7428C11.7617 13.6518 11.6818 13.5768 11.5862 13.5256C11.3509 13.4094 11.1053 13.314 10.8522 13.2407C9.85463 12.9107 9.51259 12.5576 9.51259 11.8684C9.52301 11.6652 9.57562 11.4661 9.66727 11.2829C9.75892 11.0997 9.88773 10.9363 10.0461 10.8023C10.2044 10.6683 10.389 10.5665 10.5888 10.503C10.7886 10.4395 10.9997 10.4162 11.2093 10.4332ZM23.3443 10.5206H24.5042L25.9562 13.8825L27.4265 10.5206H28.5777L26.2254 15.6515H25.6538L23.3443 10.5206ZM2.80103 10.5282H4.35996C6.08199 10.5282 7.28306 11.5575 7.28306 13.0347C7.27874 13.4063 7.18763 13.7722 7.01652 14.1049C6.84541 14.4377 6.59875 14.7287 6.29497 14.9562C5.73944 15.3671 5.05027 15.5721 4.35204 15.5344H2.80103V10.5282ZM7.77156 10.5282H8.83329V15.5328H7.77235L7.77156 10.5282ZM29.0583 10.5282H32.0669V11.376H30.1192V12.4872H31.9996V13.3349H30.1192V14.6858H32.07V15.5328H29.0614L29.0583 10.5282ZM32.7731 10.5282H34.3479C35.5727 10.5282 36.2742 11.0689 36.2742 12.0062C36.295 12.3514 36.1779 12.6912 35.9472 12.9552C35.7164 13.2193 35.3896 13.3876 35.0343 13.4253L36.75 15.5328H35.4444L33.975 13.5218H33.8364V15.5328H32.7755L32.7731 10.5282ZM33.834 11.3162V12.8318H34.1444C34.8221 12.8318 35.1816 12.5615 35.1816 12.0576C35.1816 11.5705 34.8221 11.3155 34.161 11.3155L33.834 11.3162ZM3.86275 11.376V14.6858H4.14778C4.66665 14.7338 5.18528 14.592 5.60141 14.2884C5.7865 14.1307 5.9347 13.9366 6.03614 13.7191C6.13758 13.5016 6.18992 13.2657 6.18967 13.0271C6.18973 12.7906 6.13716 12.5568 6.03551 12.3416C5.93387 12.1265 5.78555 11.9351 5.60062 11.7803C5.18775 11.4699 4.66732 11.3248 4.14699 11.3752L3.86275 11.376Z" fill="#251F1F"/>
<ellipse cx="20.7467" cy="13.0804" rx="2.77109" ry="2.68037" fill="#EE6A2A"/>
</g>
<defs>
<clipPath id="clip0_3456_18508">
<rect width="42" height="26" rx="2.625" fill="white"/>
</clipPath>
</defs>
</svg>
