<svg width="101" height="101" viewBox="0 0 101 101" fill="none" xmlns="http://www.w3.org/2000/svg">
<g clip-path="url(#clip0_640_39759)">
<path d="M84.1564 55.1437L60.4843 31.4716C55.8352 26.8226 48.2976 26.8226 43.6485 31.4716L19.9764 55.1437C15.3273 59.7928 15.3273 67.3305 19.9764 71.9796L43.6485 95.6517C48.2976 100.301 55.8352 100.301 60.4843 95.6517L84.1564 71.9796C88.8055 67.3305 88.8055 59.7928 84.1564 55.1437Z" fill="#FCEAE9"/>
<path d="M13.9434 47.8889L12.0681 46.8062C11.4987 46.4774 10.7706 46.6725 10.4419 47.2419L9.35913 49.1173C9.03039 49.6867 9.22548 50.4148 9.79488 50.7435L11.6702 51.8262C12.2396 52.155 12.9677 51.9599 13.2965 51.3905L14.3792 49.5151C14.7079 48.9457 14.5128 48.2177 13.9434 47.8889Z" fill="#FCEAE9"/>
<path d="M21.0716 26.4283L17.1742 27.2572C16.5311 27.394 16.1206 28.0262 16.2574 28.6693L17.0863 32.5667C17.2231 33.2098 17.8553 33.6202 18.4984 33.4835L22.3957 32.6546C23.0388 32.5178 23.4493 31.8856 23.3125 31.2425L22.4836 27.3451C22.3469 26.702 21.7147 26.2916 21.0716 26.4283Z" fill="#FCEAE9"/>
<path d="M96.0755 44.171L93.9574 44.6215C93.3143 44.7583 92.9038 45.3905 93.0406 46.0336L93.4911 48.1517C93.6279 48.7948 94.2601 49.2052 94.9032 49.0685L97.0213 48.618C97.6644 48.4812 98.0748 47.849 97.9381 47.2059L97.4876 45.0878C97.3508 44.4447 96.7186 44.0342 96.0755 44.171Z" fill="#FCEAE9"/>
<path d="M40.6311 17.1911L36.6728 19.5695C36.1092 19.9081 35.9269 20.6395 36.2655 21.2031L38.6439 25.1613C38.9825 25.7249 39.7139 25.9073 40.2774 25.5686L44.2357 23.1903C44.7993 22.8516 44.9816 22.1202 44.643 21.5567L42.2646 17.5984C41.926 17.0348 41.1946 16.8525 40.6311 17.1911Z" fill="#FCEAE9"/>
<path d="M3.94228 24.4365L2.05899 24.2717C1.40401 24.2144 0.826593 24.6989 0.76929 25.3539L0.604524 27.2372C0.547221 27.8922 1.03173 28.4696 1.68671 28.5269L3.57 28.6917C4.22498 28.749 4.8024 28.2645 4.8597 27.6095L5.02447 25.7262C5.08177 25.0712 4.59726 24.4938 3.94228 24.4365Z" fill="#FCEAE9"/>
<path d="M99.3153 17.1982L97.432 17.0334C96.7771 16.9761 96.1996 17.4607 96.1423 18.1156L95.9776 19.9989C95.9203 20.6539 96.4048 21.2313 97.0598 21.2886L98.943 21.4534C99.598 21.5107 100.175 21.0262 100.233 20.3712L100.398 18.4879C100.455 17.8329 99.9703 17.2555 99.3153 17.1982Z" fill="#FCEAE9"/>
<path d="M39.0927 4.34079L37.2094 4.17602C36.5544 4.11872 35.977 4.60323 35.9197 5.25821L35.7549 7.14149C35.6976 7.79647 36.1821 8.37389 36.8371 8.4312L38.7204 8.59596C39.3754 8.65327 39.9528 8.16875 40.0101 7.51377L40.1749 5.63049C40.2322 4.97551 39.7476 4.39809 39.0927 4.34079Z" fill="#FCEAE9"/>
<path d="M67.0731 21.8261L65.1899 21.6614C64.5349 21.6041 63.9575 22.0886 63.9001 22.7436L63.7354 24.6268C63.6781 25.2818 64.1626 25.8592 64.8176 25.9165L66.7009 26.0813C67.3558 26.1386 67.9333 25.6541 67.9906 24.9991L68.1553 23.1158C68.2126 22.4609 67.7281 21.8834 67.0731 21.8261Z" fill="#FCEAE9"/>
<path d="M85.6461 25.2348L82.342 23.5512C81.7561 23.2527 81.0393 23.4856 80.7408 24.0715L79.0572 27.3756C78.7587 27.9614 78.9916 28.6783 79.5774 28.9768L82.8816 30.6604C83.4674 30.9589 84.1842 30.7259 84.4827 30.1401L86.1663 26.836C86.4648 26.2502 86.2319 25.5333 85.6461 25.2348Z" fill="#FCEAE9"/>
<path d="M84.6056 8.82448L83.3511 9.16063C82.716 9.3308 82.3391 9.98358 82.5093 10.6187L82.8454 11.8732C83.0156 12.5083 83.6684 12.8852 84.3035 12.715L85.558 12.3789C86.1931 12.2087 86.57 11.5559 86.3998 10.9208L86.0637 9.66627C85.8935 9.03119 85.2407 8.65431 84.6056 8.82448Z" fill="#FCEAE9"/>
<path d="M17.381 9.50612L16.1265 9.84227C15.4914 10.0124 15.1145 10.6652 15.2847 11.3003L15.6208 12.5549C15.791 13.1899 16.4438 13.5668 17.0789 13.3967L18.3334 13.0605C18.9685 12.8903 19.3454 12.2375 19.1752 11.6025L18.8391 10.3479C18.6689 9.71283 18.0161 9.33595 17.381 9.50612Z" fill="#FCEAE9"/>
<path d="M61.5295 6.57448L60.2749 6.91063C59.6398 7.0808 59.2629 7.73358 59.4331 8.36866L59.7693 9.62322C59.9394 10.2583 60.5922 10.6352 61.2273 10.465L62.4819 10.1289C63.1169 9.95868 63.4938 9.3059 63.3237 8.67082L62.9875 7.41627C62.8173 6.78119 62.1645 6.40431 61.5295 6.57448Z" fill="#FCEAE9"/>
<path d="M44.8686 60.9392C33.4521 73.9189 24.5762 88.3673 24.5762 88.3673C24.0103 88.9333 23.6923 89.7009 23.6923 90.5013C23.6923 91.3016 24.0103 92.0693 24.5762 92.6352L29.18 96.9124C29.746 97.478 30.5135 97.7956 31.3137 97.7954C32.1139 97.7953 32.8812 97.4773 33.447 96.9115C33.447 96.9115 40.1962 79.6143 51.8406 65.9156C62.8112 74.0523 73.055 83.1352 82.4531 93.0627C83.1354 93.7015 84.7613 93.7042 84.3929 91.7365C84.1166 90.2604 82.6502 87.907 81.6982 86.3791C81.381 85.87 81.1209 85.4526 80.9809 85.1897C76.2327 76.2943 65.5499 64.8431 58.9003 58.6696C67.3034 50.9002 76.5039 44.0342 86.3513 38.1871C87.4986 37.496 88.7116 36.5692 87.731 35.4707L86.3521 34.3612C85.7903 33.7389 85.053 33.3017 84.2375 33.1072C83.422 32.9127 82.5667 32.9701 81.7845 33.2719C71.1214 38.2621 61.2986 44.8678 52.6608 52.8509C46.2208 47.0533 39.4554 41.6244 32.3966 36.591C30.3655 35.1147 27.1733 33.2876 24.7158 36.5897L21.7167 41.8826C20.2404 43.9137 20.9957 45.0838 23.0269 46.5601C23.0269 46.5601 29.1686 49.2682 44.2995 60.5497C44.4894 60.6793 44.6791 60.8091 44.8686 60.9392Z" fill="#E32B25"/>
</g>
<defs>
<clipPath id="clip0_640_39759">
<rect width="100" height="100" fill="white" transform="translate(0.5 0.5)"/>
</clipPath>
</defs>
</svg>
