<svg width="17" height="13" viewBox="0 0 17 13" fill="none" xmlns="http://www.w3.org/2000/svg">
<path d="M5.96021 12.4864C5.68502 12.4863 5.42116 12.3689 5.2266 12.16L0.406551 6.9864C0.217529 6.77634 0.112909 6.49503 0.115274 6.20299C0.117638 5.91096 0.226824 5.6316 0.419218 5.42509C0.611613 5.21859 0.871821 5.10146 1.1439 5.09892C1.41597 5.09638 1.67812 5.20861 1.87383 5.4115L5.96021 9.79767L14.3302 0.812684C14.5259 0.609798 14.788 0.497504 15.0601 0.500042C15.3321 0.50258 15.5924 0.619706 15.7848 0.826212C15.9772 1.03272 16.0863 1.31208 16.0887 1.60411C16.091 1.89615 15.9864 2.17752 15.7974 2.38759L6.6928 12.16C6.4985 12.3686 6.23504 12.486 5.96021 12.4864Z" fill="#008A05"/>
</svg>
