<svg width="29" height="28" viewBox="0 0 29 28" fill="none" xmlns="http://www.w3.org/2000/svg">
<path d="M10.125 24.5C11.0915 24.5 11.875 23.7165 11.875 22.75C11.875 21.7835 11.0915 21 10.125 21C9.1585 21 8.375 21.7835 8.375 22.75C8.375 23.7165 9.1585 24.5 10.125 24.5Z" fill="#767676"/>
<path d="M22.375 24.5C23.3415 24.5 24.125 23.7165 24.125 22.75C24.125 21.7835 23.3415 21 22.375 21C21.4085 21 20.625 21.7835 20.625 22.75C20.625 23.7165 21.4085 24.5 22.375 24.5Z" fill="#767676"/>
<path d="M25.4812 6.60516C25.3583 6.45479 25.2035 6.33369 25.0279 6.25064C24.8523 6.16758 24.6605 6.12467 24.4662 6.125H7.82211L7.48688 4.22297C7.45113 4.02037 7.34514 3.83684 7.18752 3.70462C7.0299 3.57241 6.83073 3.49996 6.625 3.5H3.125C2.89294 3.5 2.67038 3.59219 2.50628 3.75628C2.34219 3.92038 2.25 4.14294 2.25 4.375C2.25 4.60706 2.34219 4.82962 2.50628 4.99372C2.67038 5.15781 2.89294 5.25 3.125 5.25H5.89109L8.38813 19.402C8.42387 19.6046 8.52986 19.7882 8.68748 19.9204C8.8451 20.0526 9.04427 20.125 9.25 20.125H23.25C23.4821 20.125 23.7046 20.0328 23.8687 19.8687C24.0328 19.7046 24.125 19.4821 24.125 19.25C24.125 19.0179 24.0328 18.7954 23.8687 18.6313C23.7046 18.4672 23.4821 18.375 23.25 18.375H9.98391L9.67547 16.625H22.8913C23.1947 16.6246 23.4887 16.5194 23.7235 16.3272C23.9583 16.1349 24.1194 15.8675 24.1797 15.5701L25.7547 7.69508C25.7926 7.50449 25.7878 7.30786 25.7405 7.11937C25.6932 6.93089 25.6047 6.75526 25.4812 6.60516Z" fill="#767676"/>
</svg>
