<svg width="42" height="26" viewBox="0 0 42 26" fill="none" xmlns="http://www.w3.org/2000/svg">
<rect width="42" height="26" rx="2.82353" fill="#404040"/>
<path d="M16.2832 5.50195H25.787V20.4966H16.2832V5.50195Z" fill="#FF5F00"/>
<path d="M17.2418 13.0016C17.2422 11.5591 17.5799 10.1355 18.2297 8.83716C18.8795 7.53886 19.8246 6.39958 20.9941 5.50463C19.5396 4.39852 17.7927 3.71056 15.9531 3.51941C14.1135 3.32826 12.2554 3.64162 10.5912 4.42367C8.92704 5.20573 7.52393 6.42492 6.54227 7.94188C5.56062 9.45884 5.04004 11.2124 5.04004 13.002C5.04004 14.7916 5.56062 16.5451 6.54227 18.0621C7.52393 19.579 8.92704 20.7982 10.5912 21.5803C12.2554 22.3623 14.1135 22.6757 15.9531 22.4845C17.7927 22.2934 19.5396 21.6054 20.9941 20.4993C19.8245 19.6043 18.8793 18.4649 18.2295 17.1664C17.5797 15.868 17.242 14.4441 17.2418 13.0016Z" fill="#EB001B"/>
<path d="M36.9627 13.0005C36.9636 14.7886 36.4442 16.5409 35.4639 18.0569C34.4837 19.573 33.0821 20.7916 31.4195 21.5734C29.757 22.3552 27.9005 22.6687 26.0624 22.478C24.2242 22.2873 22.4787 21.6001 21.0254 20.495C22.1952 19.6002 23.1405 18.4609 23.7903 17.1625C24.4402 15.864 24.7777 14.4402 24.7777 12.9976C24.7777 11.555 24.4402 10.1312 23.7903 8.83278C23.1405 7.53436 22.1952 6.39506 21.0254 5.50027C22.4789 4.39503 24.2246 3.70779 26.063 3.51717C27.9013 3.32655 29.758 3.64025 31.4207 4.42237C33.0833 5.20449 34.4849 6.42347 35.465 7.93987C36.445 9.45627 36.9641 11.2089 36.9627 12.9972V13.0005Z" fill="#F79E1B"/>
</svg>
