<svg width="145" height="32" viewBox="0 0 145 32" fill="none" xmlns="http://www.w3.org/2000/svg">
<g clip-path="url(#clip0_1444_2303)">
<path d="M24.2401 0.635742H6.61094C2.95982 0.635742 0 3.5838 0 7.22042V24.7795C0 28.4162 2.95982 31.3642 6.61094 31.3642H24.2401C27.8912 31.3642 30.8511 28.4162 30.8511 24.7795V7.22042C30.8511 3.5838 27.8912 0.635742 24.2401 0.635742Z" fill="#0C1E30"/>
<path d="M24.6594 10.1416C24.6594 8.28889 23.1462 6.78223 21.2864 6.78223C19.4268 6.78223 18.0057 8.18358 17.9168 9.97377C17.9145 10.0119 17.9133 11.7466 17.9133 13.6386L12.0396 7.8827C11.4022 7.18376 10.4923 6.78337 9.5426 6.78337C8.70634 6.78337 7.90399 7.09118 7.28294 7.64895C6.59522 8.2669 6.19171 9.14869 6.17184 10.071C6.17184 10.0802 6.17067 10.0906 6.17067 10.0999C6.17067 10.0999 6.16716 20.8456 6.17534 21.8604C6.17768 22.1185 6.24786 22.4923 6.31219 22.7307C6.7075 24.1945 8.0467 25.2175 9.57065 25.2175C11.4303 25.2175 12.9437 23.7107 12.9437 21.8581V18.25C15.3788 20.7044 18.58 23.9283 18.5788 23.9283C19.9379 25.3205 22.173 25.4546 23.5684 24.1991C24.2689 23.5696 24.6746 22.6682 24.6806 21.725C24.6806 21.725 24.6594 10.1797 24.6594 10.1427V10.1416ZM12.1788 21.857C12.1788 23.2895 11.0081 24.4548 9.57065 24.4548C8.39289 24.4548 7.35546 23.6644 7.05138 22.5328C6.99056 22.3071 6.94261 22.0097 6.94027 21.8535C6.93207 20.8421 6.93558 18.581 6.93791 16.9285C6.93791 16.4309 6.9391 15.9784 6.94027 15.6162C6.99056 14.5713 7.43382 14.2832 8.07945 14.1848C8.6923 14.0899 9.59523 14.871 10.8841 16.1717C11.2209 16.5107 11.6677 16.962 12.18 17.4782V21.857H12.1788ZM22.718 17.7084C21.9847 17.7084 21.2993 16.9863 19.9683 15.6521L18.6771 14.3873C18.6771 12.5832 18.6782 10.1508 18.6806 10.005C18.7519 8.62446 19.8958 7.54366 21.2864 7.54366C22.677 7.54366 23.8945 8.70895 23.8945 10.1439C23.8945 10.1832 23.9121 13.6733 23.9157 16.0317C23.911 16.9956 23.6993 17.7084 22.718 17.7084Z" fill="url(#paint0_linear_1444_2303)"/>
<path d="M21.277 10.9169C21.8151 10.9169 22.2514 10.4853 22.2514 9.95306C22.2514 9.42077 21.8151 8.98926 21.277 8.98926C20.7389 8.98926 20.3027 9.42077 20.3027 9.95306C20.3027 10.4853 20.7389 10.9169 21.277 10.9169Z" fill="white"/>
<path d="M9.57972 23.0067C10.1178 23.0067 10.554 22.5752 10.554 22.0429C10.554 21.5106 10.1178 21.0791 9.57972 21.0791C9.04166 21.0791 8.60547 21.5106 8.60547 22.0429C8.60547 22.5752 9.04166 23.0067 9.57972 23.0067Z" fill="white"/>
<path fill-rule="evenodd" clip-rule="evenodd" d="M145 8.31738H142.833V12.8927H138.114C135.259 12.8927 133.477 14.6109 133.477 18.1672C133.477 21.7236 135.259 23.4417 138.114 23.4417H141.071C143.623 23.4417 145 21.9633 145 18.9264V8.31738ZM142.833 18.8265C142.833 20.6247 142.165 21.3839 140.443 21.3839H138.317C136.474 21.3839 135.644 20.4449 135.644 18.1672C135.644 15.8896 136.474 14.9306 138.317 14.9306H142.833V18.8265Z" fill="#0C1E30"/>
<path d="M131.878 12.8936H127.484C125.377 12.8936 124.587 13.8526 124.587 15.9704V23.4427H126.734V16.29C126.734 15.371 127.16 14.9314 128.111 14.9314H131.878V12.8936Z" fill="#0C1E30"/>
<path fill-rule="evenodd" clip-rule="evenodd" d="M111.425 12.8936H117.846C120.519 12.8936 121.572 14.372 121.572 16.37V21.3249C121.572 22.8433 121.167 23.4427 119.365 23.4427H114.362C111.83 23.4427 110.777 22.2239 110.777 20.226C110.777 18.308 111.749 17.1891 114.382 17.1891H119.466V16.39C119.466 15.5708 119 14.9314 117.825 14.9314H111.425V12.8936ZM118.878 21.3848C119.304 21.3848 119.466 21.2249 119.466 20.8453V18.8674H114.423C113.289 18.8674 112.884 19.3269 112.884 20.1061C112.884 20.8853 113.309 21.3848 114.382 21.3848H118.878Z" fill="#0C1E30"/>
<path d="M99.6274 9.95605H97.2375V23.4421H99.6274V17.808H100.944C103.516 17.808 104.002 18.0077 104.751 19.4463L106.837 23.4421H109.511L107.303 19.2065C106.493 17.6481 105.865 16.9488 104.589 16.6092C105.703 16.1297 106.351 15.3505 106.959 14.1517L109.106 9.95605H106.534L104.447 13.9919C103.678 15.4704 103.293 15.6702 100.944 15.6702H99.6274V9.95605Z" fill="#0C1E30"/>
<path fill-rule="evenodd" clip-rule="evenodd" d="M87.6603 12.8936H89.9084C92.7439 12.8936 94.5462 14.6118 94.5462 18.1681C94.5462 21.7244 92.7439 23.4427 89.9084 23.4427H87.6603C84.8048 23.4427 83.0225 21.7244 83.0225 18.1681C83.0225 14.6118 84.8048 12.8936 87.6603 12.8936ZM89.7059 14.9314H87.8628C85.9996 14.9314 85.1895 15.8905 85.1895 18.1681C85.1895 20.4458 85.9996 21.3848 87.8628 21.3848H89.7059C91.5488 21.3848 92.3792 20.4458 92.3792 18.1681C92.3792 15.8905 91.5488 14.9314 89.7059 14.9314Z" fill="#0C1E30"/>
<path d="M75.1229 12.8936H70.7077C69.6343 12.8936 69.209 13.2931 69.209 14.5319V23.4427H71.3558V15.2311C71.3558 15.0313 71.4369 14.9314 71.6191 14.9314H75.1229C77.3709 14.9314 78.3431 15.8505 78.3431 17.5088V23.4427H80.5102V17.5088C80.5102 14.5918 78.7481 12.8936 75.1229 12.8936Z" fill="#0C1E30"/>
<path fill-rule="evenodd" clip-rule="evenodd" d="M56.027 12.8936H62.4471C65.1206 12.8936 66.1737 14.372 66.1737 16.37V21.3249C66.1737 22.8433 65.7687 23.4427 63.9661 23.4427H58.9638C56.432 23.4427 55.3789 22.2239 55.3789 20.226C55.3789 18.308 56.3512 17.1891 58.9841 17.1891H64.0675V16.39C64.0675 15.5708 63.6016 14.9314 62.4271 14.9314H56.027V12.8936ZM63.4802 21.3848C63.9055 21.3848 64.0675 21.2249 64.0675 20.8453V18.8674H59.0244C57.8904 18.8674 57.4854 19.3269 57.4854 20.1061C57.4854 20.8853 57.9107 21.3848 58.9841 21.3848H63.4802Z" fill="#0C1E30"/>
<path d="M40.2927 23.4417V12.7727C40.2927 12.2931 40.5763 11.9935 41.123 11.9935C41.5483 11.9935 41.7914 12.1733 41.9736 12.5729L45.9633 21.184C46.5306 22.7225 47.4014 23.6814 49.3052 23.6814C51.4114 23.6814 52.4443 22.5026 52.4443 20.7245V9.95557H50.0344V20.6246C50.0344 21.0841 49.7305 21.3838 49.2241 21.3838C48.7785 21.3838 48.5154 21.144 48.3532 20.8244L44.3635 12.2132C43.7965 10.6748 42.9459 9.71582 41.0419 9.71582C38.9154 9.71582 37.9028 10.8946 37.9028 12.6528V23.4417H40.2927Z" fill="#0C1E30"/>
</g>
<defs>
<linearGradient id="paint0_linear_1444_2303" x1="15.4252" y1="6.78223" x2="15.588" y2="25.2222" gradientUnits="userSpaceOnUse">
<stop stop-color="#34BCFF"/>
<stop offset="1" stop-color="#039DE8"/>
</linearGradient>
<clipPath id="clip0_1444_2303">
<rect width="145" height="30.7285" fill="white" transform="translate(0 0.635742)"/>
</clipPath>
</defs>
</svg>
