<svg width="29" height="28" viewBox="0 0 29 28" fill="none" xmlns="http://www.w3.org/2000/svg">
<g clip-path="url(#clip0_1905_14300)">
<path d="M22.5 0H6.5C3.18629 0 0.5 2.68629 0.5 6V21.9984C0.5 25.3121 3.18629 27.9984 6.5 27.9984H22.5C25.8137 27.9984 28.5 25.3121 28.5 21.9984V6C28.5 2.68629 25.8137 0 22.5 0Z" fill="#0C1E30"/>
<path d="M22.8804 8.66065C22.8804 6.97249 21.507 5.59961 19.8191 5.59961C18.1313 5.59961 16.8416 6.87655 16.7609 8.50777C16.7588 8.54257 16.7577 10.1232 16.7577 11.8472L11.4269 6.60239C10.8484 5.96551 10.0225 5.60067 9.16061 5.60067C8.40163 5.60067 7.67343 5.88115 7.10977 6.38939C6.48561 6.95245 6.11939 7.75595 6.10135 8.59633C6.10135 8.60477 6.10029 8.61427 6.10029 8.62269C6.10029 8.62269 6.09711 18.4142 6.10453 19.339C6.10665 19.5741 6.17035 19.9147 6.22873 20.132C6.58751 21.4658 7.80295 22.398 9.18607 22.398C10.8739 22.398 12.2474 21.025 12.2474 19.3369V16.0491C14.4575 18.2856 17.3628 21.2232 17.3618 21.2232C18.5952 22.4918 20.6238 22.614 21.8902 21.47C22.526 20.8964 22.8942 20.075 22.8996 19.2156C22.8996 19.2156 22.8804 8.69545 22.8804 8.66171V8.66065ZM11.5532 19.3358C11.5532 20.6412 10.4907 21.703 9.18607 21.703C8.11715 21.703 7.17559 20.9828 6.89961 19.9516C6.84441 19.746 6.80089 19.475 6.79877 19.3327C6.79133 18.4111 6.79451 16.3507 6.79663 14.845C6.79663 14.3915 6.79771 13.9793 6.79877 13.6492C6.84441 12.6971 7.24671 12.4345 7.83267 12.3449C8.38889 12.2584 9.20837 12.9701 10.3781 14.1553C10.6838 14.4643 11.0893 14.8755 11.5543 15.3458V19.3358H11.5532ZM21.1184 15.5556C20.4528 15.5556 19.8308 14.8977 18.6228 13.6819L17.4509 12.5294C17.4509 10.8855 17.452 8.66909 17.4541 8.53623C17.5188 7.27827 18.557 6.29345 19.8191 6.29345C21.0812 6.29345 22.1862 7.35527 22.1862 8.66277C22.1862 8.69861 22.2022 11.8788 22.2054 14.0278C22.2012 14.9061 22.009 15.5556 21.1184 15.5556Z" fill="url(#paint0_linear_1905_14300)"/>
<path d="M19.81 9.36775C20.2983 9.36775 20.6943 8.97457 20.6943 8.48953C20.6943 8.00451 20.2983 7.61133 19.81 7.61133C19.3216 7.61133 18.9258 8.00451 18.9258 8.48953C18.9258 8.97457 19.3216 9.36775 19.81 9.36775Z" fill="white"/>
<path d="M9.19477 20.3834C9.68311 20.3834 10.079 19.9902 10.079 19.5052C10.079 19.0201 9.68311 18.627 9.19477 18.627C8.70641 18.627 8.31055 19.0201 8.31055 19.5052C8.31055 19.9902 8.70641 20.3834 9.19477 20.3834Z" fill="white"/>
</g>
<defs>
<linearGradient id="paint0_linear_1905_14300" x1="14.4996" y1="5.59961" x2="14.6485" y2="22.4022" gradientUnits="userSpaceOnUse">
<stop stop-color="#34BCFF"/>
<stop offset="1" stop-color="#039DE8"/>
</linearGradient>
<clipPath id="clip0_1905_14300">
<rect width="28" height="28" fill="white" transform="translate(0.5)"/>
</clipPath>
</defs>
</svg>
