<svg width="121" height="110" viewBox="0 0 121 110" fill="none" xmlns="http://www.w3.org/2000/svg">
<g clip-path="url(#clip0_640_40121)">
<path d="M96.7309 99.1541H24.1154C21.2748 99.1541 18.9648 96.5932 18.9648 93.4474V6.67447C18.9648 3.52875 21.2756 0.967773 24.1154 0.967773H90.167C90.2302 1.06184 90.3001 1.15119 90.3762 1.23513L101.344 13.388C101.499 13.5617 101.681 13.7093 101.882 13.825V93.4474C101.882 96.5955 99.5716 99.1541 96.7309 99.1541Z" fill="#F8FBFF"/>
<path d="M96.7309 98.3724C99.1408 98.3724 101.101 96.1616 101.101 93.4474V14.2347C100.981 14.1364 100.868 14.029 100.764 13.9134L89.7979 1.76046L89.7878 1.74951H24.1154C21.7064 1.74951 19.7452 3.95949 19.7452 6.67447V93.4474C19.7452 96.1648 21.7064 98.3724 24.1154 98.3724H96.7309ZM96.7309 99.1541H24.1154C21.2748 99.1541 18.9648 96.5932 18.9648 93.4474V6.67447C18.9648 3.52875 21.2756 0.967773 24.1154 0.967773H90.167C90.2302 1.06184 90.3001 1.15119 90.3762 1.23513L101.344 13.388C101.499 13.5617 101.681 13.7093 101.882 13.825V93.4474C101.882 96.5955 99.5716 99.1541 96.7309 99.1541Z" fill="#046B9F"/>
<path d="M72.1935 38.5381C72.1984 38.7663 72.1518 38.9928 72.0572 39.2005C71.9626 39.4083 71.8225 39.592 71.6472 39.738C71.2108 40.0834 70.6816 40.2907 70.127 40.3337V41.5736H69.4411V40.3814C69.0534 40.3821 68.6663 40.3508 68.2838 40.2876C67.9676 40.2421 67.6587 40.1551 67.3652 40.0288V39.1947C67.6938 39.3373 68.0361 39.4458 68.3868 39.5184C68.7325 39.5975 69.0857 39.6397 69.4403 39.6442V37.2928C68.8725 37.1495 68.3468 36.873 67.9068 36.486C67.7587 36.3272 67.6435 36.1406 67.568 35.9369C67.4924 35.7332 67.458 35.5165 67.4667 35.2993C67.4621 35.0789 67.5086 34.8603 67.6025 34.6609C67.6965 34.4615 67.8354 34.2867 68.0083 34.1502C68.421 33.8297 68.9194 33.6393 69.4403 33.603V32.6328H70.1286V33.5944C70.7785 33.6112 71.4201 33.7452 72.0226 33.9899L71.7456 34.6935C71.2292 34.4851 70.6838 34.3578 70.1286 34.3159V36.6377C70.5645 36.7639 70.9849 36.9388 71.3819 37.1591C71.6305 37.3006 71.841 37.5004 71.9953 37.7415C72.1329 37.9838 72.2015 38.2594 72.1935 38.5381ZM71.2867 38.6076C71.2923 38.4929 71.2745 38.3782 71.2342 38.2707C71.1939 38.1631 71.1321 38.065 71.0526 37.9822C70.7813 37.7643 70.4681 37.6046 70.1325 37.5132V39.5918C70.902 39.484 71.2867 39.1559 71.2867 38.6076ZM68.3688 35.2884C68.3633 35.4076 68.3817 35.5268 68.423 35.6388C68.4643 35.7508 68.5276 35.8533 68.6092 35.9403C68.8513 36.151 69.1346 36.3086 69.4411 36.4031V34.3378C69.1479 34.3694 68.87 34.4853 68.6412 34.6716C68.5538 34.7484 68.4841 34.8434 68.4371 34.9499C68.39 35.0564 68.3667 35.1719 68.3688 35.2884ZM78.574 40.9372H73.4468V40.1727L75.5008 38.1042C75.9404 37.6773 76.3538 37.2241 76.7385 36.7471C76.9219 36.5043 77.0725 36.2383 77.1865 35.956C77.2874 35.6915 77.3379 35.4105 77.3355 35.1273C77.3448 34.9448 77.3159 34.7624 77.2507 34.5917C77.1855 34.421 77.0855 34.2658 76.957 34.1361C76.8145 34.0088 76.6482 33.911 76.4679 33.8482C76.2875 33.7854 76.0965 33.7589 75.9058 33.7702C75.5921 33.7685 75.2805 33.8228 74.9858 33.9305C74.6349 34.0734 74.3082 34.2698 74.0173 34.5129L73.5491 33.9094C74.1983 33.3372 75.0317 33.0186 75.8965 33.012C76.5213 32.9753 77.1368 33.1767 77.6196 33.5756C77.8278 33.7671 77.9916 34.002 78.0994 34.2638C78.2073 34.5255 78.2566 34.8077 78.2439 35.0906C78.2376 35.6087 78.0941 36.1159 77.828 36.5603C77.3894 37.2383 76.8647 37.8563 76.2672 38.3989L74.5604 40.0718V40.1148H78.5724L78.574 40.9372ZM79.9717 40.3705C79.9576 40.1758 80.0153 39.9827 80.134 39.8279C80.1937 39.7645 80.2666 39.7151 80.3475 39.6832C80.4285 39.6513 80.5154 39.6377 80.6022 39.6434C80.6912 39.6383 80.7802 39.6521 80.8635 39.6839C80.9468 39.7157 81.0223 39.7648 81.0853 39.8279C81.2108 39.9796 81.2729 40.174 81.2586 40.3705C81.2714 40.5649 81.2081 40.7567 81.0822 40.9052C80.9561 41.0217 80.7917 41.0879 80.6202 41.0913C80.4487 41.0948 80.2819 41.0352 80.1512 40.9239C80.0851 40.8489 80.035 40.761 80.0041 40.6658C79.9733 40.5706 79.9622 40.4701 79.9717 40.3705ZM87.728 36.4618C87.728 39.5184 86.5473 41.0467 84.1858 41.0467C83.8561 41.0552 83.5269 41.0183 83.2072 40.9372V40.1727C83.5215 40.2698 83.8491 40.3167 84.178 40.3118C84.5395 40.337 84.9019 40.2785 85.2373 40.141C85.5726 40.0034 85.8718 39.7903 86.1118 39.5184C86.6059 38.8055 86.8559 37.9513 86.8243 37.084H86.7603C86.5675 37.3773 86.2974 37.6113 85.9799 37.7602C85.638 37.9198 85.2645 38 84.8874 37.9948C84.5857 38.01 84.2842 37.9628 84.0016 37.8561C83.719 37.7495 83.4613 37.5856 83.2447 37.3748C83.0332 37.1414 82.8705 36.8679 82.7661 36.5706C82.6617 36.2732 82.6177 35.9579 82.6367 35.6433C82.6177 35.2935 82.6681 34.9434 82.7849 34.6132C82.9017 34.283 83.0826 33.9792 83.3172 33.7194C83.739 33.3233 84.2805 33.0791 84.8562 33.0255C85.4319 32.9718 86.009 33.1118 86.4965 33.4232C86.9111 33.7207 87.2283 34.1348 87.408 34.613C87.6333 35.2015 87.742 35.8284 87.728 36.4586V36.4618ZM85.1035 33.771C84.8827 33.7582 84.6617 33.7958 84.4575 33.881C84.2532 33.9661 84.0709 34.0967 83.9244 34.2627C83.6264 34.654 83.4788 35.1395 83.5084 35.6308C83.4834 36.0677 83.6201 36.4986 83.8924 36.8409C84.0431 36.9962 84.2261 37.1162 84.4285 37.1924C84.6308 37.2686 84.8475 37.2991 85.063 37.2818C85.372 37.2849 85.6776 37.2173 85.9565 37.084C86.2146 36.9642 86.4364 36.7781 86.5996 36.5446C86.7495 36.3359 86.8313 36.0857 86.8337 35.8286C86.8373 35.4712 86.7627 35.1174 86.6152 34.792C86.4831 34.4917 86.2718 34.233 86.0041 34.0439C85.7397 33.8609 85.4248 33.7655 85.1035 33.771ZM93.9766 36.4586C93.9766 39.5152 92.7959 41.0435 90.4344 41.0435C90.1031 41.0536 89.7719 41.0178 89.4503 40.9372V40.1727C89.7647 40.2698 90.0923 40.3167 90.4211 40.3118C90.7826 40.337 91.1451 40.2785 91.4804 40.141C91.8157 40.0034 92.115 39.7903 92.355 39.5184C92.849 38.8055 93.099 37.9513 93.0674 37.084H93.0035C92.8106 37.3773 92.5405 37.6113 92.2231 37.7602C91.8812 37.9198 91.5077 38 91.1305 37.9948C90.8289 38.01 90.5274 37.9628 90.2447 37.8561C89.9621 37.7495 89.7044 37.5856 89.4878 37.3748C89.2764 37.1414 89.1137 36.8679 89.0093 36.5706C88.9049 36.2732 88.8609 35.9579 88.8799 35.6433C88.8608 35.2935 88.9112 34.9434 89.028 34.6132C89.1448 34.283 89.3257 33.9792 89.5604 33.7194C89.9822 33.3233 90.5236 33.0791 91.0993 33.0255C91.675 32.9718 92.2522 33.1118 92.7397 33.4232C93.1557 33.7202 93.4743 34.1343 93.6551 34.613C93.8809 35.2014 93.9901 35.8283 93.9766 36.4586ZM91.3506 33.771C91.1297 33.7582 90.9088 33.7958 90.7045 33.881C90.5002 33.9661 90.318 34.0967 90.1714 34.2627C89.8734 34.654 89.7258 35.1395 89.7555 35.6308C89.7304 36.0677 89.8671 36.4986 90.1394 36.8409C90.2901 36.9962 90.4732 37.1162 90.6755 37.1924C90.8779 37.2686 91.0945 37.2991 91.31 37.2818C91.619 37.2849 91.9246 37.2173 92.2036 37.084C92.4616 36.9642 92.6835 36.7781 92.8466 36.5446C92.9966 36.3359 93.0784 36.0857 93.0807 35.8286C93.0843 35.4712 93.0097 35.1174 92.8622 34.792C92.7301 34.4917 92.5189 34.233 92.2512 34.0439C91.9868 33.8609 91.6719 33.7655 91.3506 33.771Z" fill="#767676"/>
<path d="M72.1935 76.2158C72.1984 76.4441 72.1518 76.6705 72.0572 76.8783C71.9626 77.086 71.8225 77.2697 71.6472 77.4158C71.2108 77.7611 70.6816 77.9685 70.127 78.0115V79.2513H69.4411V78.0591C69.0534 78.0599 68.6663 78.0285 68.2838 77.9653C67.9676 77.9198 67.6587 77.8328 67.3652 77.7066V76.8725C67.6938 77.0151 68.0361 77.1235 68.3868 77.1961C68.7325 77.2752 69.0857 77.3174 69.4403 77.322V74.9705C68.8725 74.8273 68.3468 74.5507 67.9068 74.1637C67.7587 74.005 67.6435 73.8183 67.568 73.6146C67.4924 73.4109 67.458 73.1942 67.4667 72.9771C67.4621 72.7566 67.5086 72.5381 67.6025 72.3387C67.6965 72.1393 67.8354 71.9644 68.0083 71.8279C68.421 71.5075 68.9194 71.317 69.4403 71.2807V70.3105H70.1286V71.2721C70.7785 71.289 71.4201 71.423 72.0226 71.6676L71.7456 72.3712C71.2292 72.1629 70.6838 72.0355 70.1286 71.9936V74.3154C70.5645 74.4417 70.9849 74.6166 71.3819 74.8368C71.6305 74.9783 71.841 75.1782 71.9953 75.4192C72.1329 75.6616 72.2015 75.9371 72.1935 76.2158ZM71.2867 76.2854C71.2923 76.1706 71.2745 76.056 71.2342 75.9484C71.1939 75.8409 71.1321 75.7427 71.0526 75.66C70.7813 75.442 70.4681 75.2824 70.1325 75.1909V77.2696C70.902 77.1617 71.2867 76.8336 71.2867 76.2854ZM68.3688 72.9661C68.3633 73.0854 68.3817 73.2045 68.423 73.3165C68.4643 73.4285 68.5276 73.5311 68.6092 73.6181C68.8513 73.8287 69.1346 73.9864 69.4411 74.0809V72.0155C69.1479 72.0471 68.87 72.163 68.6412 72.3493C68.5538 72.4261 68.4841 72.5211 68.4371 72.6276C68.39 72.7341 68.3667 72.8497 68.3688 72.9661ZM75.8848 73.8464C76.5841 73.8063 77.2739 74.024 77.8241 74.4585C78.0598 74.6667 78.2458 74.9253 78.3682 75.2154C78.4906 75.5054 78.5463 75.8192 78.5311 76.1337C78.5495 76.4881 78.4899 76.8422 78.3567 77.1709C78.2235 77.4997 78.0198 77.7952 77.7601 78.0365C77.1629 78.5227 76.4056 78.7673 75.6374 78.7221C74.9415 78.7634 74.2472 78.6176 73.6263 78.2999V77.4423C73.9128 77.6182 74.2263 77.7455 74.5542 77.8191C74.9116 77.9083 75.2784 77.954 75.6468 77.9552C76.1706 77.9878 76.6886 77.8304 77.1061 77.5119C77.2838 77.3512 77.4229 77.1524 77.513 76.9302C77.6031 76.7081 77.642 76.4684 77.6266 76.2291C77.6266 75.1388 76.9599 74.5937 75.6265 74.5937C75.1712 74.6069 74.718 74.6592 74.2717 74.75L73.8128 74.4561L74.1063 70.8007H77.9786V71.62H74.857L74.6596 73.9652C75.063 73.8851 75.4735 73.8453 75.8848 73.8464ZM79.9709 78.0521C79.9568 77.8574 80.0145 77.6644 80.1332 77.5096C80.1929 77.4462 80.2658 77.3967 80.3467 77.3648C80.4277 77.3329 80.5147 77.3194 80.6015 77.3251C80.6904 77.32 80.7795 77.3337 80.8627 77.3655C80.946 77.3973 81.0216 77.4464 81.0845 77.5096C81.21 77.6612 81.2721 77.8556 81.2578 78.0521C81.2706 78.2465 81.2073 78.4383 81.0814 78.5868C80.9553 78.7033 80.791 78.7695 80.6195 78.773C80.4479 78.7764 80.2811 78.7169 80.1504 78.6056C80.0839 78.53 80.0337 78.4415 80.003 78.3456C79.9722 78.2497 79.9616 78.1484 79.9717 78.0482L79.9709 78.0521ZM87.7272 74.1434C87.7272 77.2 86.5465 78.7283 84.185 78.7283C83.8554 78.7355 83.5264 78.6973 83.2072 78.615V77.8504C83.5215 77.9475 83.8491 77.9945 84.178 77.9896C84.5395 78.0147 84.9019 77.9563 85.2373 77.8187C85.5726 77.6811 85.8718 77.4681 86.1118 77.1961C86.6059 76.4832 86.8559 75.629 86.8243 74.7618H86.7603C86.5675 75.055 86.2974 75.2891 85.9799 75.438C85.638 75.5976 85.2645 75.6777 84.8874 75.6725C84.5857 75.6877 84.2842 75.6405 84.0016 75.5338C83.719 75.4272 83.4613 75.2634 83.2447 75.0526C83.0332 74.8191 82.8705 74.5457 82.7661 74.2483C82.6617 73.9509 82.6177 73.6357 82.6367 73.321C82.6177 72.9712 82.6681 72.6211 82.7849 72.2909C82.9017 71.9607 83.0826 71.6569 83.3172 71.3972C83.739 71.001 84.2805 70.7569 84.8562 70.7032C85.4319 70.6496 86.009 70.7895 86.4965 71.1009C86.9111 71.3985 87.2283 71.8125 87.408 72.2907C87.6333 72.8793 87.742 73.5062 87.728 74.1364L87.7272 74.1434ZM85.1035 71.4488C84.8827 71.4359 84.6617 71.4735 84.4575 71.5587C84.2532 71.6439 84.0709 71.7744 83.9244 71.9405C83.6264 72.3317 83.4788 72.8173 83.5084 73.3085C83.4834 73.7455 83.6201 74.1763 83.8924 74.5186C84.0431 74.6739 84.2261 74.7939 84.4285 74.8701C84.6308 74.9464 84.8475 74.9769 85.063 74.9595C85.372 74.9626 85.6776 74.895 85.9565 74.7618C86.2146 74.6419 86.4364 74.4558 86.5996 74.2224C86.7495 74.0136 86.8313 73.7635 86.8337 73.5063C86.8373 73.1489 86.7627 72.7951 86.6152 72.4697C86.4831 72.1694 86.2718 71.9108 86.0041 71.7216C85.7397 71.5386 85.4248 71.4432 85.1035 71.4488ZM93.9766 74.1364C93.9766 77.193 92.7959 78.7213 90.4344 78.7213C90.1031 78.7313 89.7719 78.6955 89.4503 78.615V77.8504C89.7647 77.9475 90.0923 77.9945 90.4211 77.9896C90.7826 78.0147 91.1451 77.9563 91.4804 77.8187C91.8157 77.6811 92.115 77.4681 92.355 77.1961C92.849 76.4832 93.099 75.629 93.0674 74.7618H93.0035C92.8106 75.055 92.5405 75.2891 92.2231 75.438C91.8812 75.5976 91.5077 75.6777 91.1305 75.6725C90.8289 75.6877 90.5274 75.6405 90.2447 75.5338C89.9621 75.4272 89.7044 75.2634 89.4878 75.0526C89.2764 74.8191 89.1137 74.5457 89.0093 74.2483C88.9049 73.9509 88.8609 73.6357 88.8799 73.321C88.8608 72.9712 88.9112 72.6211 89.028 72.2909C89.1448 71.9607 89.3257 71.6569 89.5604 71.3972C89.9822 71.001 90.5236 70.7569 91.0993 70.7032C91.675 70.6496 92.2522 70.7895 92.7397 71.1009C93.1557 71.3979 93.4743 71.812 93.6551 72.2907C93.8809 72.8792 93.9901 73.5061 93.9766 74.1364ZM91.3506 71.4488C91.1297 71.4359 90.9088 71.4735 90.7045 71.5587C90.5002 71.6439 90.318 71.7744 90.1714 71.9405C89.8734 72.3317 89.7258 72.8173 89.7555 73.3085C89.7304 73.7455 89.8671 74.1763 90.1394 74.5186C90.2901 74.6739 90.4732 74.7939 90.6755 74.8701C90.8779 74.9464 91.0945 74.9769 91.31 74.9595C91.619 74.9626 91.9246 74.895 92.2036 74.7618C92.4616 74.6419 92.6835 74.4558 92.8466 74.2224C92.9966 74.0136 93.0784 73.7635 93.0807 73.5063C93.0843 73.1489 93.0097 72.7951 92.8622 72.4697C92.7301 72.1694 92.5189 71.9108 92.2512 71.7216C91.9868 71.5386 91.6719 71.4432 91.3506 71.4488Z" fill="#767676"/>
<path d="M52.1342 66.1372H22.6049C22.4863 66.1507 22.367 66.1174 22.2724 66.0445C22.1778 65.9716 22.1151 65.8647 22.0977 65.7463C22.1151 65.628 22.1778 65.5211 22.2724 65.4482C22.367 65.3753 22.4863 65.342 22.6049 65.3555H52.1342C52.2528 65.342 52.372 65.3753 52.4667 65.4482C52.5613 65.5211 52.624 65.628 52.6414 65.7463C52.624 65.8647 52.5613 65.9716 52.4667 66.0445C52.372 66.1174 52.2528 66.1507 52.1342 66.1372Z" fill="#D8E2F0"/>
<path d="M52.4299 44.445H22.6096C22.4903 44.459 22.3703 44.426 22.2749 44.3531C22.1794 44.2802 22.1158 44.173 22.0977 44.0542C22.1158 43.9353 22.1794 43.8281 22.2749 43.7552C22.3703 43.6823 22.4903 43.6493 22.6096 43.6633H52.4299C52.5492 43.6493 52.6692 43.6823 52.7647 43.7552C52.8602 43.8281 52.9237 43.9353 52.9419 44.0542C52.9237 44.173 52.8602 44.2802 52.7647 44.3531C52.6692 44.426 52.5492 44.459 52.4299 44.445Z" fill="#D8E2F0"/>
<path d="M79.0053 25.2715C95.5894 25.2715 109.033 38.4133 109.033 54.6234C109.033 70.8336 95.5894 83.9761 79.0053 83.9761C62.4212 83.9761 48.9766 70.8343 48.9766 54.6234C48.9766 38.4125 62.4204 25.2715 79.0053 25.2715Z" fill="url(#paint0_linear_640_40121)"/>
<path d="M101.164 44.2739H51.9668V43.4922H101.164V44.2739Z" fill="white" fill-opacity="0.48"/>
<path d="M101.166 65.9663H51.6895V65.1846H101.166V65.9663Z" fill="white" fill-opacity="0.48"/>
<path d="M97.7461 80.3338L100.108 82.6993L105.975 76.8214L103.614 74.4551C102.237 76.9193 100.206 78.9539 97.7461 80.3338Z" fill="#039DE8"/>
<path d="M100.107 83.1988L97.166 80.2532L97.5726 80.0249C99.9759 78.6774 101.96 76.6898 103.305 74.2823L103.533 73.875L106.474 76.8214L100.107 83.1988ZM98.3186 80.4088L100.107 82.1997L105.476 76.8214L103.689 75.0296C102.367 77.2377 100.523 79.0854 98.3186 80.4088Z" fill="#046B9F"/>
<path d="M110.579 91.2297C110.834 91.495 111.139 91.7067 111.477 91.8525C111.814 91.9983 112.177 92.0751 112.545 92.0786C112.913 92.0821 113.278 92.0122 113.618 91.8729C113.958 91.7336 114.267 91.5277 114.527 91.2673C114.787 91.0069 114.993 90.6972 115.132 90.3562C115.271 90.0153 115.341 89.65 115.338 89.2817C115.334 88.9134 115.258 88.5495 115.112 88.2112C114.967 87.873 114.756 87.5671 114.491 87.3116L104.997 77.8018L101.086 81.7198L110.579 91.2297Z" fill="#039DE8"/>
<path d="M112.534 92.3938C112.124 92.3949 111.718 92.3147 111.34 92.1577C110.961 92.0007 110.617 91.7701 110.328 91.4792L100.586 81.7191L104.997 77.3008L114.739 87.06C115.174 87.4974 115.47 88.054 115.589 88.6596C115.709 89.2651 115.647 89.8925 115.411 90.4628C115.175 91.0331 114.776 91.5207 114.264 91.8641C113.752 92.2076 113.15 92.3924 112.534 92.3938ZM101.583 81.7191L110.827 90.9788C111.05 91.2098 111.316 91.3941 111.61 91.5208C111.905 91.6476 112.222 91.7143 112.542 91.7172C112.863 91.72 113.181 91.6588 113.477 91.5373C113.774 91.4158 114.043 91.2363 114.27 91.0093C114.497 90.7823 114.676 90.5123 114.797 90.2152C114.919 89.918 114.98 89.5996 114.977 89.2786C114.974 88.9575 114.908 88.6402 114.781 88.3452C114.655 88.0502 114.471 87.7834 114.24 87.5603L104.997 78.3006L101.583 81.7191Z" fill="#046B9F"/>
<path d="M101.41 32.9788C96.7362 28.3036 90.7144 25.217 84.1948 24.1548C77.6752 23.0926 70.9872 24.1083 65.075 27.0587C59.1628 30.0091 54.3249 34.745 51.2443 40.598C48.1638 46.451 46.9961 53.1253 47.9062 59.6789C48.8163 66.2324 51.7582 72.3341 56.3165 77.1226C60.8749 81.9111 66.8194 85.1445 73.3111 86.3664C79.8027 87.5883 86.5135 86.737 92.4961 83.9326C98.4787 81.1282 103.431 76.5124 106.654 70.7367C110.005 64.7302 111.307 57.7915 110.36 50.9759C109.414 44.1603 106.271 37.8409 101.41 32.9788ZM97.3523 73.6151C93.7418 77.2319 89.1418 79.6949 84.134 80.6928C79.1261 81.6907 73.9353 81.1786 69.218 79.2213C64.5007 77.264 60.4687 73.9494 57.632 69.6966C54.7952 65.4438 53.2811 60.4439 53.2811 55.3291C53.2811 50.2143 54.7952 45.2144 57.632 40.9616C60.4687 36.7088 64.5007 33.3942 69.218 31.4368C73.9353 29.4795 79.1261 28.9674 84.134 29.9653C89.1418 30.9632 93.7418 33.4263 97.3523 37.043C102.194 41.8925 104.914 48.47 104.915 55.3286C104.915 62.1872 102.196 68.765 97.3546 73.6151H97.3523Z" fill="#039DE8"/>
<path d="M79.1406 87.2675C71.4096 87.2703 63.941 84.4595 58.1243 79.3581C52.3077 74.2567 48.5393 67.2122 47.5204 59.5354C46.5015 51.8587 48.3015 44.0726 52.5854 37.626C56.8693 31.1793 63.3453 26.5113 70.8084 24.4905C78.2715 22.4697 86.2134 23.2337 93.1562 26.6404C100.099 30.0472 105.57 35.8645 108.55 43.0101C111.531 50.1556 111.819 58.1425 109.36 65.4847C106.901 72.8269 101.863 79.0242 95.1839 82.9234C90.3112 85.7611 84.7769 87.2597 79.1406 87.2675ZM79.1227 24.0975C71.3794 24.101 63.9146 26.9916 58.1823 32.2062C52.45 37.4208 48.8606 44.5862 48.1132 52.3066C47.3658 60.027 49.514 67.7497 54.1393 73.9705C58.7646 80.1913 65.5359 84.4647 73.1343 85.9584C80.7326 87.4521 88.614 86.0592 95.2432 82.0509C101.873 78.0426 106.775 71.706 108.996 64.2752C111.217 56.8444 110.597 48.8516 107.257 41.8535C103.917 34.8555 98.0969 29.3532 90.9292 26.4185C87.1815 24.8841 83.1713 24.0957 79.1227 24.0975ZM79.1 81.5428C72.6171 81.5344 66.3696 79.1083 61.575 74.7374C56.7803 70.3665 53.7819 64.364 53.1642 57.8994C52.5465 51.4349 54.3537 44.9716 58.2335 39.7689C62.1134 34.5663 67.788 30.9971 74.1516 29.7568C80.5151 28.5166 87.1117 29.6941 92.6559 33.0601C98.2 36.426 102.294 41.7391 104.141 47.964C105.988 54.189 105.455 60.8798 102.646 66.7326C99.8375 72.5854 94.9538 77.181 88.947 79.6237C85.8196 80.8956 82.4754 81.5474 79.1 81.5428ZM79.1 29.823C72.7925 29.8313 66.714 32.1918 62.049 36.4444C57.384 40.6971 54.4668 46.5373 53.8658 52.827C53.2647 59.1166 55.023 65.4052 58.7979 70.4671C62.5728 75.5291 68.0939 79.0018 74.2853 80.2086C80.4767 81.4153 86.8949 80.2697 92.2891 76.9949C97.6834 73.7201 101.667 68.5508 103.464 62.4943C105.261 56.4377 104.743 49.9279 102.01 44.2333C99.2774 38.5387 94.5259 34.0674 88.6817 31.6906C85.6386 30.4526 82.3845 29.8181 79.1 29.8222V29.823Z" fill="#046B9F"/>
<path d="M65.4298 56.4141C65.4414 56.7477 65.3763 57.0796 65.2395 57.3841C65.1027 57.6885 64.8978 57.9574 64.6408 58.1699C64.0028 58.6541 63.2321 58.931 62.4323 58.9633V60.3705H61.4958V58.9907C60.4878 58.99 59.49 58.7891 58.56 58.3997V56.5837C59.0209 56.8039 59.502 56.9788 59.9967 57.1059C60.486 57.2447 60.9879 57.3346 61.495 57.3741V55.2462L61.0354 55.0672C60.3161 54.8261 59.6591 54.4283 59.1117 53.9024C58.7313 53.4751 58.5289 52.9181 58.5459 52.3459C58.5398 52.0304 58.6072 51.7178 58.7426 51.4328C58.8781 51.1479 59.0779 50.8984 59.3263 50.7043C59.9564 50.2334 60.7122 49.9613 61.4974 49.9225V48.8711H62.4338V49.8952C63.4117 49.9254 64.3751 50.14 65.2737 50.5276L64.6291 52.1356C63.9292 51.8456 63.1891 51.6648 62.4346 51.5994V53.6264C63.0972 53.86 63.7348 54.1594 64.338 54.5199C64.674 54.7319 64.9573 55.018 65.166 55.3564C65.3471 55.6789 65.4382 56.0442 65.4298 56.4141ZM63.3648 56.5173C63.3654 56.4235 63.3445 56.3308 63.304 56.2463C63.2634 56.1618 63.2042 56.0876 63.1307 56.0295C62.916 55.8614 62.6798 55.7229 62.4284 55.6175V57.3279C63.0532 57.2227 63.3648 56.9524 63.3648 56.5173ZM60.6085 52.3467C60.6058 52.4399 60.6231 52.5325 60.6592 52.6184C60.6952 52.7043 60.7493 52.7815 60.8176 52.8447C61.0202 53.0137 61.2483 53.1493 61.4935 53.2465V51.6322C60.9035 51.7192 60.6085 51.9574 60.6085 52.3467ZM71.7611 59.5543H69.6415V53.7413L69.6618 52.786L69.6962 51.7416C69.3439 52.0945 69.0994 52.3259 68.9626 52.4358L67.81 53.3637L66.7876 52.0856L70.0185 49.5059H71.7603L71.7611 59.5543ZM74.7789 58.5717C74.7677 58.4125 74.7897 58.2528 74.8434 58.1026C74.8972 57.9524 74.9815 57.8151 75.091 57.6993C75.3402 57.4866 75.6627 57.3805 75.9892 57.4038C76.1487 57.3937 76.3087 57.4153 76.4598 57.4672C76.611 57.5191 76.7505 57.6003 76.8703 57.7063C76.979 57.8212 77.0629 57.9574 77.1166 58.1063C77.1703 58.2553 77.1928 58.4137 77.1825 58.5717C77.1914 58.728 77.1683 58.8845 77.1146 59.0316C77.0609 59.1787 76.9778 59.3132 76.8703 59.4269C76.7524 59.5353 76.6139 59.6189 76.463 59.6726C76.3122 59.7263 76.1522 59.7491 75.9924 59.7396C75.8309 59.7499 75.669 59.7282 75.516 59.6758C75.3629 59.6233 75.2217 59.5412 75.1004 59.4339C74.9901 59.3204 74.9045 59.1851 74.8492 59.0366C74.7939 58.8882 74.7699 58.7299 74.7789 58.5717ZM87.351 59.5543H84.9232L82.5914 55.7551L80.2588 59.5543H77.9816L81.3084 54.3738L78.1946 49.509H80.5405L82.7037 53.123L84.8233 49.509H87.1145L83.9625 54.4902L87.351 59.5543ZM96.7204 59.5543H94.2926L91.9607 55.7551L89.6282 59.5543H87.351L90.6778 54.3738L87.564 49.509H89.9099L92.0684 53.123L94.188 49.509H96.4792L93.3319 54.4902L96.7204 59.5543Z" fill="#046B9F"/>
<path d="M34.5109 15.1595L35.7533 12.7611H36.6897L34.9385 15.9795V18.0183H34.0801V16.0077L32.3359 12.7611H33.2724L34.5109 15.1595ZM40.4419 16.0194C40.4752 16.5716 40.2969 17.1157 39.9432 17.5407C39.7647 17.7267 39.5481 17.872 39.3084 17.9664C39.0686 18.0609 38.8113 18.1023 38.5541 18.0879C38.2096 18.0947 37.8698 18.0077 37.5708 17.8362C37.2843 17.6666 37.0554 17.4146 36.9137 17.113C36.7544 16.7707 36.6759 16.3962 36.6843 16.0186C36.653 15.4713 36.8311 14.9327 37.1822 14.5122C37.3624 14.3266 37.5805 14.1822 37.8216 14.0888C38.0627 13.9954 38.3211 13.9553 38.5791 13.9712C38.8331 13.9589 39.0868 14.0023 39.3224 14.0983C39.558 14.1943 39.7698 14.3406 39.9432 14.5271C40.294 14.9436 40.4734 15.4783 40.445 16.0225L40.4419 16.0194ZM37.5544 16.0194C37.5544 16.9377 37.8926 17.3968 38.5689 17.3968C39.2453 17.3968 39.5811 16.9387 39.5764 16.0225C39.5764 15.1141 39.2382 14.66 38.5619 14.66C38.4141 14.6475 38.2656 14.6733 38.1307 14.7351C37.9957 14.7969 37.879 14.8924 37.7917 15.0125C37.6152 15.3185 37.533 15.6699 37.5552 16.0225L37.5544 16.0194ZM44.2135 18.0183L44.0949 17.4969H44.052C43.9292 17.6864 43.7556 17.8373 43.551 17.9323C43.319 18.0405 43.0654 18.094 42.8096 18.0887C42.6152 18.104 42.4197 18.0801 42.2347 18.0184C42.0497 17.9566 41.8789 17.8582 41.7326 17.7291C41.6049 17.58 41.5079 17.4071 41.4471 17.2204C41.3863 17.0336 41.3629 16.8367 41.3783 16.6409V14.0408H42.229V16.4931C42.211 16.7361 42.2769 16.9778 42.4155 17.1779C42.4891 17.2582 42.5802 17.3206 42.6817 17.3602C42.7831 17.3997 42.8923 17.4155 43.0008 17.4062C43.1467 17.4183 43.2933 17.3958 43.4289 17.3405C43.5645 17.2852 43.6852 17.1987 43.7812 17.088C43.9759 16.7684 44.0634 16.3948 44.0309 16.0217V14.0408H44.8784V18.0183H44.2135ZM48.0944 13.9712C48.2352 13.9686 48.3759 13.9806 48.5142 14.0072L48.4315 14.7944C48.3093 14.7654 48.1841 14.751 48.0585 14.7514C47.9062 14.7455 47.7544 14.7718 47.6131 14.8288C47.4717 14.8858 47.344 14.9721 47.2383 15.0821C47.0246 15.316 46.9123 15.6252 46.9261 15.942V18.0183H46.0802V14.0408H46.7404L46.852 14.7444H46.8949C47.0178 14.5167 47.1947 14.3229 47.41 14.18C47.6123 14.0437 47.8506 13.971 48.0944 13.9712ZM54.2751 16.5908C54.2844 16.8015 54.2432 17.0113 54.1551 17.2027C54.067 17.3942 53.9345 17.5618 53.7686 17.6915C53.3617 17.9789 52.8696 18.1197 52.3725 18.091C51.8723 18.1096 51.3743 18.015 50.9155 17.8143V17.0005C51.16 17.1149 51.4154 17.2039 51.678 17.2663C51.9241 17.328 52.1766 17.3606 52.4303 17.3632C52.6956 17.3842 52.9603 17.316 53.1826 17.1693C53.2611 17.1077 53.324 17.0283 53.366 16.9377C53.408 16.8471 53.4281 16.7478 53.4245 16.6479C53.4256 16.5535 53.4063 16.46 53.3679 16.3737C53.3296 16.2875 53.273 16.2106 53.2021 16.1484C52.9227 15.9396 52.6125 15.7759 52.2828 15.6629C51.8939 15.5306 51.5449 15.3017 51.2683 14.9977C51.0695 14.741 50.9656 14.4234 50.974 14.0987C50.9655 13.9013 51.0034 13.7047 51.0847 13.5248C51.1661 13.3448 51.2886 13.1866 51.4423 13.0629C51.8034 12.7952 52.2462 12.6617 52.6948 12.6853C53.2127 12.6885 53.7241 12.8012 54.1955 13.016L53.9224 13.7195C53.5296 13.5399 53.1053 13.4397 52.6737 13.4248C52.4483 13.4087 52.2244 13.4729 52.0416 13.6062C51.9715 13.6643 51.9156 13.7379 51.8782 13.8211C51.8409 13.9043 51.8231 13.995 51.8262 14.0862C51.8227 14.2085 51.8523 14.3296 51.9121 14.4364C51.9845 14.5484 52.0814 14.6425 52.1954 14.7115C52.4226 14.8448 52.6604 14.959 52.9063 15.0532C53.2062 15.1674 53.4909 15.3184 53.7538 15.5027C53.9203 15.6258 54.0556 15.7865 54.1487 15.9717C54.2368 16.1659 54.28 16.3776 54.2751 16.5908ZM56.6842 17.407C56.8937 17.4064 57.1018 17.3737 57.3015 17.31V17.9464C57.1854 17.9937 57.0645 18.028 56.9409 18.0488C56.7901 18.0767 56.637 18.0906 56.4836 18.0902C55.6808 18.0902 55.2795 17.6683 55.2795 16.8246V14.6811H54.7371V14.3074L55.3185 13.9947L55.6057 13.1535H56.1262V14.0385H57.257V14.6787H56.1278V16.8097C56.1214 16.8916 56.132 16.974 56.1588 17.0516C56.1857 17.1292 56.2282 17.2004 56.2838 17.2608C56.3377 17.3103 56.4008 17.3487 56.4695 17.3738C56.5382 17.3989 56.6111 17.4102 56.6842 17.407ZM60.5791 18.0183L60.4105 17.4648H60.3817C60.2306 17.673 60.0324 17.8423 59.8034 17.9589C59.5664 18.0545 59.3119 18.0992 59.0566 18.0902C58.7226 18.1113 58.394 17.9989 58.1427 17.7775C58.029 17.6593 57.9411 17.5187 57.8845 17.3646C57.828 17.2105 57.804 17.0463 57.8142 16.8824C57.8039 16.7015 57.8404 16.521 57.9203 16.3585C58.0001 16.1959 58.1206 16.0567 58.2699 15.9545C58.6925 15.7142 59.1734 15.5959 59.659 15.6129L60.345 15.591V15.3784C60.3609 15.1726 60.2972 14.9685 60.1671 14.8085C60.0932 14.7406 60.0061 14.6889 59.9113 14.6564C59.8165 14.624 59.716 14.6116 59.6161 14.6201C59.4175 14.6193 59.22 14.6496 59.0308 14.71C58.8469 14.7687 58.667 14.8395 58.4923 14.9218L58.2192 14.3175C58.4429 14.2018 58.6805 14.1154 58.9262 14.0604C59.1633 14.0036 59.4059 13.9737 59.6497 13.9712C60.0579 13.9414 60.4634 14.0587 60.7929 14.3019C60.9297 14.4356 61.0352 14.5979 61.1019 14.7773C61.1685 14.9566 61.1947 15.1486 61.1784 15.3393V18.0183H60.5791ZM59.3227 17.4429C59.5924 17.4559 59.8567 17.3637 60.0601 17.1857C60.1547 17.0922 60.2281 16.9795 60.2755 16.8552C60.3228 16.7309 60.3431 16.5978 60.3348 16.465V16.1195L59.8252 16.1413C59.5239 16.1316 59.2252 16.2003 58.9582 16.3407C58.8688 16.3998 58.7966 16.4815 58.7491 16.5777C58.7015 16.6738 58.6802 16.7809 58.6874 16.8879C58.6825 16.9638 58.6939 17.0398 58.7209 17.1109C58.7478 17.1819 58.7896 17.2464 58.8435 17.2999C58.9782 17.4059 59.148 17.457 59.3188 17.4429H59.3227ZM63.838 17.407C64.0475 17.4064 64.2557 17.3737 64.4553 17.31V17.9464C64.3393 17.9937 64.2183 18.028 64.0948 18.0488C63.9439 18.0767 63.7909 18.0906 63.6375 18.0902C62.8383 18.0902 62.4388 17.6683 62.4388 16.8246V14.6811H61.8964V14.3074L62.4778 13.9947L62.765 13.1535H63.2855V14.0385H64.4101V14.6787H63.2816V16.8097C63.2753 16.8916 63.2858 16.974 63.3127 17.0516C63.3396 17.1292 63.3821 17.2004 63.4377 17.2608C63.5455 17.3598 63.6879 17.4124 63.8341 17.407H63.838ZM66.9822 18.0902C66.7166 18.1055 66.4506 18.0653 66.2013 17.9722C65.952 17.879 65.7247 17.735 65.5338 17.5493C65.3522 17.3479 65.2122 17.1125 65.1219 16.8566C65.0316 16.6007 64.9929 16.3295 65.0078 16.0585C64.9761 15.5057 65.1486 14.9606 65.4925 14.5271C65.6591 14.3407 65.8652 14.1941 66.0957 14.098C66.3262 14.0018 66.5752 13.9585 66.8246 13.9712C67.0534 13.9596 67.2822 13.9962 67.496 14.0786C67.7099 14.161 67.9041 14.2874 68.0662 14.4497C68.3855 14.8108 68.5493 15.2837 68.5219 15.7653V16.2203H65.8772C65.867 16.5454 65.9784 16.8627 66.1893 17.1099C66.298 17.2174 66.428 17.3009 66.5709 17.3547C66.7138 17.4086 66.8665 17.4317 67.0189 17.4226C67.2389 17.4241 67.4584 17.4018 67.6737 17.3562C67.8977 17.3045 68.116 17.2303 68.3253 17.1349V17.8221C68.1269 17.918 67.9171 17.9881 67.701 18.0308C67.4628 18.0734 67.2211 18.0933 66.9791 18.0902H66.9822ZM66.8261 14.6091C66.7068 14.6038 66.5877 14.6239 66.4766 14.6679C66.3655 14.712 66.2649 14.779 66.1815 14.8648C66.0044 15.0732 65.9027 15.3354 65.8928 15.609H67.6947C67.7086 15.3389 67.6228 15.0731 67.4536 14.8624C67.3732 14.7772 67.2754 14.7104 67.1668 14.6667C67.0582 14.623 66.9415 14.6033 66.8246 14.6091H66.8261ZM72.8281 18.0183H71.9799V15.566C71.9975 15.3261 71.937 15.0869 71.8074 14.8843C71.742 14.8066 71.659 14.7457 71.5653 14.7067C71.4717 14.6676 71.37 14.6516 71.2689 14.66C71.1325 14.649 70.9955 14.6723 70.8704 14.7279C70.7453 14.7834 70.636 14.8695 70.5525 14.9781C70.3737 15.3009 70.2944 15.6695 70.3246 16.0374V18.0183H69.4826V14.0408H70.1428L70.2614 14.5622H70.3044C70.4164 14.3711 70.5834 14.2182 70.7835 14.1237C70.9985 14.0187 71.235 13.9652 71.4742 13.9673C71.7158 13.9368 71.961 13.9802 72.1776 14.0918C72.3942 14.2034 72.572 14.378 72.6877 14.5927H72.7454C72.8636 14.3952 73.0355 14.2355 73.241 14.1323C73.468 14.0186 73.7192 13.9618 73.973 13.9665C74.1612 13.9496 74.3508 13.9729 74.5293 14.0349C74.7079 14.0969 74.8712 14.1961 75.0086 14.3261C75.2501 14.6391 75.3666 15.0309 75.3355 15.4253V18.0183H74.488V15.566C74.5059 15.3258 74.4448 15.0864 74.314 14.8843C74.2482 14.8067 74.1649 14.7458 74.071 14.7068C73.9771 14.6678 73.8753 14.6517 73.774 14.66C73.6381 14.6486 73.5016 14.6707 73.3762 14.7242C73.2508 14.7778 73.1404 14.8612 73.0545 14.9672C72.8818 15.2501 72.8021 15.5801 72.8266 15.9107L72.8281 18.0183ZM78.2448 18.0902C77.9792 18.1055 77.7132 18.0653 77.4639 17.9722C77.2146 17.879 76.9873 17.735 76.7964 17.5493C76.6151 17.3478 76.4754 17.1123 76.3854 16.8564C76.2954 16.6005 76.2568 16.3293 76.272 16.0585C76.2403 15.5057 76.4128 14.9606 76.7566 14.5271C76.9232 14.3407 77.1293 14.1941 77.3598 14.098C77.5903 14.0018 77.8394 13.9585 78.0888 13.9712C78.3176 13.9596 78.5463 13.9962 78.7602 14.0786C78.9741 14.161 79.1683 14.2874 79.3304 14.4497C79.6484 14.8108 79.8114 15.283 79.7838 15.7638V16.2203H77.1382C77.1281 16.5454 77.2394 16.8627 77.4504 17.1099C77.559 17.2174 77.689 17.3009 77.832 17.3547C77.9749 17.4086 78.1275 17.4317 78.28 17.4226C78.5 17.4241 78.7195 17.4018 78.9347 17.3562C79.1588 17.3045 79.3771 17.2303 79.5863 17.1349V17.8221C79.3879 17.918 79.1781 17.9881 78.962 18.0308C78.7246 18.0733 78.4837 18.0932 78.2425 18.0902H78.2448ZM78.0888 14.6091C77.9694 14.6038 77.8503 14.6239 77.7392 14.6679C77.6281 14.712 77.5275 14.779 77.4442 14.8648C77.2671 15.0732 77.1653 15.3354 77.1554 15.609H78.9573C78.973 15.3401 78.8897 15.0747 78.7232 14.8632C78.6423 14.7771 78.5436 14.7098 78.434 14.6659C78.3245 14.622 78.2066 14.6026 78.0888 14.6091ZM84.2375 18.0183H83.39V15.573C83.4084 15.3295 83.3431 15.0871 83.205 14.8859C83.1309 14.8058 83.0395 14.7437 82.9378 14.7044C82.8361 14.6651 82.7268 14.6496 82.6182 14.6592C82.4728 14.6468 82.3265 14.6686 82.191 14.7229C82.0555 14.7772 81.9345 14.8624 81.8378 14.9719C81.6446 15.29 81.5579 15.6617 81.5904 16.0327V18.0183H80.7444V14.0408H81.4047L81.5233 14.5622H81.5662C81.6896 14.3693 81.8668 14.2168 82.0758 14.1237C82.3053 14.018 82.5553 13.9646 82.8078 13.9673C83.0041 13.9407 83.2038 13.9603 83.3912 14.0246C83.5786 14.0889 83.7484 14.196 83.8872 14.3376C84.026 14.4791 84.1299 14.6511 84.1907 14.8399C84.2515 15.0287 84.2675 15.2292 84.2375 15.4253V18.0183ZM86.8908 17.407C87.1009 17.4063 87.3096 17.3734 87.5097 17.3093V17.9456C87.3936 17.9929 87.2727 18.0273 87.1491 18.048C86.9983 18.0759 86.8452 18.0898 86.6918 18.0894C85.8927 18.0894 85.4931 17.6676 85.4931 16.8238V14.6811H84.9508V14.3074L85.5321 13.9947L85.8193 13.1535H86.3391V14.0385H87.4699V14.6787H86.3391V16.8097C86.3327 16.8916 86.3433 16.974 86.3702 17.0516C86.397 17.1292 86.4396 17.2004 86.4952 17.2608C86.6026 17.3594 86.7451 17.4119 86.8908 17.407Z" fill="#58606C"/>
<path d="M89.6827 15.1393C89.4727 15.136 89.2656 15.0902 89.0737 15.0048C88.8818 14.9195 88.709 14.7961 88.5658 14.6423C88.4226 14.4885 88.3119 14.3072 88.2402 14.1095C88.1685 13.9118 88.1375 13.7016 88.1488 13.4916L88.7285 2.75387C88.7446 2.44722 88.8505 2.15211 89.033 1.90537C89.2155 1.65862 89.4664 1.47117 89.7546 1.36639C90.0427 1.26161 90.3553 1.24416 90.6533 1.31619C90.9513 1.38823 91.2215 1.54658 91.4302 1.77148L101.616 12.5097C101.826 12.734 101.965 13.0153 102.016 13.3183C102.067 13.6214 102.028 13.9328 101.903 14.2136C101.779 14.4944 101.574 14.7321 101.315 14.8972C101.056 15.0622 100.755 15.1471 100.448 15.1414L89.6827 15.1393Z" fill="#E2E9F2"/>
<path d="M89.1356 14.1122C89.207 14.1895 89.2934 14.2513 89.3895 14.2941C89.4856 14.3368 89.5894 14.3595 89.6946 14.3607L100.464 14.3602C100.617 14.3625 100.767 14.3197 100.896 14.2371C101.025 14.1545 101.127 14.0358 101.189 13.8957C101.251 13.7556 101.271 13.6002 101.245 13.4491C101.22 13.2979 101.151 13.1575 101.046 13.0454L90.2768 1.85591C90.1724 1.74379 90.0375 1.66488 89.8887 1.629C89.7399 1.59312 89.5839 1.60185 89.44 1.65411C89.2961 1.70637 89.1708 1.79986 89.0795 1.92293C88.9883 2.04601 88.9352 2.19324 88.9268 2.34631L88.9276 13.5369C88.9215 13.642 88.9369 13.7473 88.9727 13.8463C89.0086 13.9453 89.0636 14.0354 89.1356 14.1122ZM88.5654 14.6459C88.4219 14.4922 88.311 14.3111 88.2393 14.1133C88.1676 13.9155 88.1367 13.7053 88.1483 13.4952L88.1486 2.30581C88.1651 1.99957 88.2711 1.70495 88.4536 1.45863C88.636 1.21231 88.8867 1.02518 89.1745 0.920523C89.4623 0.815865 89.7744 0.798306 90.0721 0.870032C90.3698 0.941758 90.6398 1.0996 90.8486 1.32391L101.618 12.5134C101.827 12.7377 101.965 13.0186 102.016 13.321C102.066 13.6234 102.027 13.9341 101.902 14.2143C101.778 14.4944 101.574 14.7318 101.316 14.8969C101.058 15.0619 100.758 15.1473 100.451 15.1424L89.6828 15.1402C89.4728 15.1376 89.2654 15.0924 89.0733 15.0074C88.8811 14.9223 88.7087 14.7997 88.5654 14.6459Z" fill="#046B9F"/>
<path d="M60.4997 110.002C93.4069 110.002 120.083 109.011 120.083 107.788C120.083 106.565 93.4069 105.574 60.4997 105.574C27.5926 105.574 0.916016 106.565 0.916016 107.788C0.916016 109.011 27.5926 110.002 60.4997 110.002Z" fill="#567675" fill-opacity="0.11"/>
<path d="M35.201 101.407H18.9905C17.7619 101.407 16.6294 100.95 15.8014 100.121C14.9735 99.2916 14.5176 98.1571 14.5176 96.9264V85.5595C14.5176 84.3288 14.9735 83.1942 15.8014 82.3649C16.6294 81.5356 17.7619 81.0788 18.9905 81.0788H19.3807V80.688V77.4403C19.3807 73.1066 22.7696 69.7119 27.0958 69.7119C31.422 69.7119 34.8108 73.1066 34.8108 77.4403V80.688V81.0788H35.201C36.4296 81.0788 37.5622 81.5356 38.3901 82.3649C39.218 83.1942 39.6739 84.3288 39.6739 85.5595V96.9264C39.6739 98.1571 39.218 99.2916 38.3901 100.121C37.5622 100.95 36.4296 101.407 35.201 101.407ZM27.0958 86.7925C25.9116 86.7925 25.0845 87.6209 25.0845 88.8072V93.6787C25.0845 94.8649 25.9116 95.6934 27.0958 95.6934C28.28 95.6934 29.107 94.8649 29.107 93.6787V88.8072C29.107 87.6209 28.28 86.7925 27.0958 86.7925ZM27.0958 72.1779C24.1009 72.1779 21.8424 74.4402 21.8424 77.4403V80.688V81.0788H22.2326H31.9589H32.3491V80.688V77.4403C32.3491 74.4402 30.0907 72.1779 27.0958 72.1779Z" fill="#E5F0F3"/>
<path d="M27.0953 70.103C22.9879 70.103 19.7705 73.326 19.7705 77.4405V81.4699H18.9901C16.6625 81.4699 14.9073 83.2282 14.9073 85.5597V96.9266C14.9073 99.2582 16.6625 101.016 18.9901 101.016H35.2006C37.5281 101.016 39.2833 99.2582 39.2833 96.9266V85.5597C39.2833 83.2282 37.5281 81.4699 35.2006 81.4699H34.4202V77.4405C34.4202 73.326 31.2027 70.103 27.0953 70.103ZM32.7389 81.4699H21.4518V77.4405C21.4518 74.2705 23.9307 71.7872 27.0953 71.7872C30.2599 71.7872 32.7389 74.2705 32.7389 77.4405V81.4699ZM27.0953 96.0845C25.6814 96.0845 24.6939 95.0953 24.6939 93.679V88.8074C24.6939 87.3911 25.6814 86.4018 27.0953 86.4018C28.5093 86.4018 29.4968 87.3911 29.4968 88.8074V93.679C29.4968 95.0953 28.5093 96.0845 27.0953 96.0845ZM27.0953 69.3213C31.6343 69.3213 35.2006 72.8937 35.2006 77.4405V80.6882C37.9564 80.6882 40.0637 82.7992 40.0637 85.5597V96.9266C40.0637 99.6872 37.9564 101.798 35.2006 101.798H18.9901C16.2343 101.798 14.127 99.6872 14.127 96.9266V85.5597C14.127 82.7992 16.2343 80.6882 18.9901 80.6882V77.4405C18.9901 72.8937 22.5564 69.3213 27.0953 69.3213ZM31.9585 80.6882V77.4405C31.9585 74.68 29.8511 72.569 27.0953 72.569C24.3395 72.569 22.2322 74.68 22.2322 77.4405V80.6882H31.9585ZM27.0953 95.3028C28.068 95.3028 28.7164 94.6533 28.7164 93.679V88.8074C28.7164 87.8331 28.068 87.1836 27.0953 87.1836C26.1227 87.1836 25.4743 87.8331 25.4743 88.8074V93.679C25.4743 94.6533 26.1227 95.3028 27.0953 95.3028Z" fill="#046B9F"/>
</g>
<defs>
<linearGradient id="paint0_linear_640_40121" x1="79.0049" y1="26.5043" x2="79.0049" y2="83.9761" gradientUnits="userSpaceOnUse">
<stop stop-color="white" stop-opacity="0.8"/>
<stop offset="0.498" stop-color="#B4D3E5" stop-opacity="0.706"/>
<stop offset="1" stop-color="white" stop-opacity="0.8"/>
</linearGradient>
<clipPath id="clip0_640_40121">
<rect width="119.167" height="110" fill="white" transform="translate(0.916016)"/>
</clipPath>
</defs>
</svg>
