<svg width="101" height="101" viewBox="0 0 101 101" fill="none" xmlns="http://www.w3.org/2000/svg">
<g clip-path="url(#clip0_640_39771)">
<path d="M84.1545 55.1437L60.4824 31.4716C55.8333 26.8225 48.2956 26.8225 43.6465 31.4716L19.9744 55.1437C15.3253 59.7928 15.3253 67.3305 19.9744 71.9796L43.6465 95.6517C48.2956 100.301 55.8333 100.301 60.4824 95.6517L84.1545 71.9796C88.8036 67.3305 88.8036 59.7928 84.1545 55.1437Z" fill="#E5F3E6"/>
<path d="M13.9454 47.8879L12.07 46.8052C11.5006 46.4765 10.7726 46.6715 10.4438 47.2409L9.36109 49.1163C9.03235 49.6857 9.22743 50.4138 9.79683 50.7425L11.6722 51.8253C12.2416 52.154 12.9697 51.9589 13.2984 51.3895L14.3811 49.5142C14.7099 48.9448 14.5148 48.2167 13.9454 47.8879Z" fill="#E5F3E6"/>
<path d="M21.0716 26.4274L17.1742 27.2563C16.5311 27.393 16.1206 28.0252 16.2574 28.6683L17.0863 32.5657C17.2231 33.2088 17.8553 33.6193 18.4984 33.4825L22.3957 32.6536C23.0388 32.5168 23.4493 31.8846 23.3125 31.2415L22.4836 27.3442C22.3469 26.7011 21.7147 26.2906 21.0716 26.4274Z" fill="#E5F3E6"/>
<path d="M96.0755 44.17L93.9574 44.6205C93.3143 44.7573 92.9038 45.3895 93.0406 46.0326L93.4911 48.1507C93.6279 48.7938 94.2601 49.2043 94.9032 49.0675L97.0213 48.617C97.6644 48.4802 98.0748 47.848 97.9381 47.2049L97.4876 45.0868C97.3508 44.4437 96.7186 44.0333 96.0755 44.17Z" fill="#E5F3E6"/>
<path d="M40.6311 17.1906L36.6728 19.569C36.1092 19.9076 35.9269 20.639 36.2655 21.2026L38.6439 25.1608C38.9825 25.7244 39.7139 25.9068 40.2774 25.5681L44.2357 23.1898C44.7993 22.8511 44.9816 22.1198 44.643 21.5562L42.2646 17.5979C41.926 17.0343 41.1946 16.852 40.6311 17.1906Z" fill="#E5F3E6"/>
<path d="M3.94228 24.436L2.05899 24.2712C1.40401 24.2139 0.826593 24.6984 0.76929 25.3534L0.604524 27.2367C0.547221 27.8917 1.03173 28.4691 1.68671 28.5264L3.57 28.6912C4.22498 28.7485 4.8024 28.264 4.8597 27.609L5.02446 25.7257C5.08177 25.0707 4.59726 24.4933 3.94228 24.436Z" fill="#E5F3E6"/>
<path d="M99.3134 17.1977L97.4301 17.033C96.7751 16.9757 96.1977 17.4602 96.1404 18.1151L95.9756 19.9984C95.9183 20.6534 96.4028 21.2308 97.0578 21.2881L98.9411 21.4529C99.5961 21.5102 100.173 21.0257 100.231 20.3707L100.396 18.4874C100.453 17.8324 99.9684 17.255 99.3134 17.1977Z" fill="#E5F3E6"/>
<path d="M39.0946 4.33981L37.2113 4.17505C36.5564 4.11774 35.9789 4.60226 35.9216 5.25724L35.7569 7.14052C35.6996 7.7955 36.1841 8.37292 36.8391 8.43022L38.7223 8.59499C39.3773 8.65229 39.9547 8.16778 40.012 7.5128L40.1768 5.62951C40.2341 4.97453 39.7496 4.39712 39.0946 4.33981Z" fill="#E5F3E6"/>
<path d="M67.0731 21.8252L65.1899 21.6604C64.5349 21.6031 63.9575 22.0876 63.9001 22.7426L63.7354 24.6259C63.6781 25.2808 64.1626 25.8583 64.8176 25.9156L66.7009 26.0803C67.3558 26.1376 67.9333 25.6531 67.9906 24.9981L68.1553 23.1149C68.2126 22.4599 67.7281 21.8825 67.0731 21.8252Z" fill="#E5F3E6"/>
<path d="M85.6461 25.2338L82.342 23.5502C81.7561 23.2517 81.0393 23.4847 80.7408 24.0705L79.0572 27.3746C78.7587 27.9604 78.9916 28.6773 79.5774 28.9758L82.8816 30.6594C83.4674 30.9579 84.1842 30.725 84.4827 30.1391L86.1663 26.835C86.4648 26.2492 86.2319 25.5323 85.6461 25.2338Z" fill="#E5F3E6"/>
<path d="M84.6056 8.8235L83.3511 9.15966C82.716 9.32982 82.3391 9.98261 82.5093 10.6177L82.8454 11.8722C83.0156 12.5073 83.6684 12.8842 84.3035 12.714L85.558 12.3779C86.1931 12.2077 86.57 11.5549 86.3998 10.9198L86.0637 9.66529C85.8935 9.03021 85.2407 8.65333 84.6056 8.8235Z" fill="#E5F3E6"/>
<path d="M17.381 9.50514L16.1265 9.8413C15.4914 10.0115 15.1145 10.6642 15.2847 11.2993L15.6208 12.5539C15.791 13.189 16.4438 13.5658 17.0789 13.3957L18.3334 13.0595C18.9685 12.8893 19.3454 12.2366 19.1752 11.6015L18.8391 10.3469C18.6689 9.71185 18.0161 9.33497 17.381 9.50514Z" fill="#E5F3E6"/>
<path d="M61.5295 6.57301L60.2749 6.90917C59.6398 7.07934 59.2629 7.73212 59.4331 8.3672L59.7693 9.62175C59.9394 10.2568 60.5922 10.6337 61.2273 10.4635L62.4819 10.1274C63.1169 9.95722 63.4938 9.30444 63.3237 8.66936L62.9875 7.4148C62.8173 6.77973 62.1645 6.40284 61.5295 6.57301Z" fill="#E5F3E6"/>
<path fill-rule="evenodd" clip-rule="evenodd" d="M29.6113 60.1004C30.997 57.3278 33.7697 53.8624 38.622 55.2481C42.7804 56.6338 45.553 60.7933 47.6328 66.3385C64.2673 47.6254 78.1292 34.4552 94.7649 30.2969C96.8447 30.2969 97.5375 30.2969 96.1506 31.6826C78.1292 44.1588 60.8018 62.8731 46.9399 87.1326C46.8188 87.294 46.6618 87.425 46.4813 87.5152C46.3008 87.6055 46.1018 87.6524 45.9 87.6524C45.6982 87.6524 45.4992 87.6055 45.3187 87.5152C45.1382 87.425 44.9812 87.294 44.8601 87.1326C42.0875 80.2016 40.0078 73.2731 36.5423 66.3385C35.1566 62.8731 33.0768 60.1004 29.6113 60.1004Z" fill="#008A05"/>
</g>
<defs>
<clipPath id="clip0_640_39771">
<rect width="100" height="100" fill="white" transform="translate(0.5 0.5)"/>
</clipPath>
</defs>
</svg>
