<svg width="140" height="20" viewBox="0 0 140 20" fill="none" xmlns="http://www.w3.org/2000/svg">
<path fill-rule="evenodd" clip-rule="evenodd" d="M139.43 0H136.621V5.95575H130.502C126.8 5.95575 124.489 8.19241 124.489 12.8218C124.489 17.4511 126.8 19.6878 130.502 19.6878H134.336C137.645 19.6878 139.43 17.7632 139.43 13.8101V0ZM136.621 13.68C136.621 16.0207 135.754 17.009 133.522 17.009H130.765C128.375 17.009 127.299 15.7866 127.299 12.8218C127.299 9.8569 128.375 8.60853 130.765 8.60853H136.621V13.68Z" fill="white"/>
<path d="M122.418 5.95585H116.719C113.988 5.95585 112.964 7.20422 112.964 9.96103V19.6879H115.748V10.3772C115.748 9.1808 116.299 8.60863 117.533 8.60863H122.418V5.95585Z" fill="white"/>
<path fill-rule="evenodd" clip-rule="evenodd" d="M95.8995 5.95585H104.224C107.69 5.95585 109.055 7.88042 109.055 10.4812V16.9311C109.055 18.9077 108.53 19.6879 106.193 19.6879H99.707C96.4247 19.6879 95.0592 18.1014 95.0592 15.5007C95.0592 13.0039 96.3196 11.5475 99.7333 11.5475H106.324V10.5072C106.324 9.44088 105.72 8.60863 104.197 8.60863H95.8995V5.95585ZM105.563 17.0091C106.114 17.0091 106.324 16.801 106.324 16.3069V13.7321H99.7858C98.3153 13.7321 97.7901 14.3303 97.7901 15.3446C97.7901 16.3589 98.3416 17.0091 99.7333 17.0091H105.563Z" fill="white"/>
<path d="M80.6024 2.13261H77.5038V19.6878H80.6024V12.3536H82.3092C85.6441 12.3536 86.2743 12.6137 87.2458 14.4862L89.9505 19.6878H93.4167L90.5545 14.1742C89.5041 12.1456 88.6901 11.2353 87.0358 10.7932C88.48 10.169 89.3203 9.15468 90.1081 7.59422L92.8915 2.13261H89.5566L86.852 7.38616C85.8541 9.31072 85.3552 9.5708 82.3092 9.5708H80.6024V2.13261Z" fill="white"/>
<path fill-rule="evenodd" clip-rule="evenodd" d="M65.0862 5.95585H68.0009C71.6772 5.95585 74.0142 8.19251 74.0142 12.8219C74.0142 17.4512 71.6772 19.6879 68.0009 19.6879H65.0862C61.3837 19.6879 59.073 17.4512 59.073 12.8219C59.073 8.19251 61.3837 5.95585 65.0862 5.95585ZM67.7384 8.60863H65.3488C62.933 8.60863 61.8826 9.857 61.8826 12.8219C61.8826 15.7867 62.933 17.0091 65.3488 17.0091H67.7384C70.1279 17.0091 71.2045 15.7867 71.2045 12.8219C71.2045 9.857 70.1279 8.60863 67.7384 8.60863Z" fill="white"/>
<path d="M48.8312 5.95585H43.1067C41.715 5.95585 41.1636 6.47601 41.1636 8.08848V19.6879H43.947V8.99875C43.947 8.73867 44.0521 8.60863 44.2884 8.60863H48.8312C51.7459 8.60863 53.0063 9.80498 53.0063 11.9636V19.6879H55.816V11.9636C55.816 8.1665 53.5315 5.95585 48.8312 5.95585Z" fill="white"/>
<path fill-rule="evenodd" clip-rule="evenodd" d="M24.0725 5.95585H32.3965C35.8627 5.95585 37.2281 7.88042 37.2281 10.4812V16.9311C37.2281 18.9077 36.703 19.6879 34.3659 19.6879H27.88C24.5977 19.6879 23.2322 18.1014 23.2322 15.5007C23.2322 13.0039 24.4926 11.5475 27.9063 11.5475H34.4972V10.5072C34.4972 9.44088 33.8933 8.60863 32.3703 8.60863H24.0725V5.95585ZM33.7357 17.0091C34.2872 17.0091 34.4972 16.801 34.4972 16.3069V13.7321H27.9588C26.4883 13.7321 25.9631 14.3303 25.9631 15.3446C25.9631 16.3589 26.5146 17.0091 27.9063 17.0091H33.7357Z" fill="white"/>
<path d="M3.67178 19.6879V5.79983C3.67178 5.17564 4.0394 4.78553 4.74839 4.78553C5.29982 4.78553 5.61493 5.0196 5.85126 5.53975L11.0242 16.749C11.7595 18.7516 12.8886 20 15.3569 20C18.0879 20 19.4271 18.4656 19.4271 16.1509V2.13275H16.3023V16.0208C16.3023 16.619 15.9084 17.0091 15.2519 17.0091C14.6742 17.0091 14.3328 16.697 14.1228 16.2809L8.94979 5.07161C8.21455 3.06902 7.11168 1.82066 4.64335 1.82066C1.88618 1.82066 0.573242 3.35511 0.573242 5.64378V19.6879H3.67178Z" fill="white"/>
</svg>
