<svg width="37" height="36" viewBox="0 0 37 36" fill="none" xmlns="http://www.w3.org/2000/svg">
<path d="M36.5323 6.56004C36.5323 2.94219 33.5886 0 29.9716 0C26.3545 0 23.5905 2.73657 23.4176 6.23239C23.4131 6.30696 23.4108 9.6943 23.4108 13.389L11.9864 2.14902C10.7466 0.784133 8.97677 0.00226195 7.12957 0.00226195C5.50303 0.00226195 3.94246 0.603349 2.7345 1.69255C1.39687 2.89925 0.612041 4.62119 0.573368 6.4222C0.573368 6.44028 0.571091 6.46062 0.571091 6.4787C0.571091 6.4787 0.564275 27.4627 0.580199 29.4445C0.584749 29.9484 0.721224 30.6783 0.846342 31.1438C1.61525 34.0024 4.22 36 7.18416 36C10.8012 36 13.7449 33.0578 13.7449 29.44V22.3941C18.4812 27.187 24.7075 33.4826 24.7052 33.4826C27.3486 36.2011 31.6959 36.4632 34.4098 34.0114C35.7725 32.7821 36.5619 31.0218 36.5732 29.1801C36.5732 29.1801 36.5323 6.63462 36.5323 6.56231V6.56004ZM12.2571 29.4377C12.2571 32.2353 9.97998 34.5108 7.18416 34.5108C4.89337 34.5108 2.87554 32.9674 2.28408 30.7574C2.16578 30.3167 2.07253 29.736 2.06798 29.4309C2.05205 27.4559 2.05887 23.0404 2.06342 19.8135C2.06342 18.8418 2.0657 17.9582 2.06798 17.2509C2.1658 15.2104 3.02797 14.6477 4.2837 14.4556C5.47573 14.2703 7.23193 15.7956 9.73884 18.3356C10.394 18.9977 11.263 19.879 12.2594 20.8868V29.4377H12.2571ZM32.756 21.3365C31.3297 21.3365 29.9966 19.9264 27.4078 17.3209L24.8963 14.8511C24.8963 11.3281 24.8986 6.57811 24.9031 6.29338C25.0419 3.59751 27.2667 1.48693 29.9716 1.48693C32.6764 1.48693 35.0445 3.76249 35.0445 6.56457C35.0445 6.6414 35.0786 13.4568 35.0855 18.0621C35.0764 19.9445 34.6646 21.3365 32.756 21.3365Z" fill="white"/>
<path d="M29.953 8.07603C30.9996 8.07603 31.848 7.23341 31.848 6.19396C31.848 5.15451 30.9996 4.31189 29.953 4.31189C28.9065 4.31189 28.0581 5.15451 28.0581 6.19396C28.0581 7.23341 28.9065 8.07603 29.953 8.07603Z" fill="white"/>
<path d="M7.2018 31.6835C8.24836 31.6835 9.09679 30.8409 9.09679 29.8014C9.09679 28.762 8.24836 27.9194 7.2018 27.9194C6.15524 27.9194 5.30687 28.762 5.30687 29.8014C5.30687 30.8409 6.15524 31.6835 7.2018 31.6835Z" fill="white"/>
</svg>
