<svg width="42" height="27" viewBox="0 0 42 27" fill="none" xmlns="http://www.w3.org/2000/svg">
<rect y="0.5" width="42" height="26" rx="2.47059" fill="#0E4595"/>
<path d="M29.4424 8.37623C28.5677 8.06996 27.6435 7.91611 26.7132 7.92204C23.7044 7.92204 21.5851 9.38455 21.5666 11.4881C21.5498 13.0408 23.0786 13.9069 24.2353 14.4237C25.4205 14.9534 25.8187 15.2914 25.8136 15.7643C25.8061 16.489 24.8669 16.8205 23.9916 16.8205C23.0037 16.8481 22.0225 16.6534 21.1256 16.2518L20.7333 16.0804L20.3057 18.4992C21.3914 18.8868 22.5404 19.0822 23.6976 19.076C26.8989 19.076 28.977 17.6274 29.0006 15.384C29.0123 14.1547 28.2009 13.2195 26.4436 12.4477C25.3793 11.948 24.7275 11.614 24.7342 11.1079C24.7342 10.6585 25.2861 10.1784 26.478 10.1784C27.2592 10.1617 28.0354 10.3028 28.757 10.5927L29.03 10.717L29.4424 8.37623Z" fill="white"/>
<path d="M17.3027 8.14386L15.3984 18.9501H18.4426L20.3477 8.14386H17.3027Z" fill="white"/>
<path fill-rule="evenodd" clip-rule="evenodd" d="M37.2779 8.14304H34.926C34.5953 8.10087 34.2594 8.16566 33.9707 8.32731C33.6821 8.48896 33.4568 8.73841 33.3299 9.03679L28.8099 18.9428H32.0019C32.0019 18.9428 32.5244 17.6111 32.6428 17.3178L36.5429 17.3227C36.6337 17.7013 36.9134 18.942 36.9134 18.942H39.7391L37.2779 8.14304ZM33.545 15.1208C33.797 14.4984 34.7579 12.0999 34.7579 12.0999C34.7502 12.1124 34.7979 11.9931 34.8668 11.8209C34.9546 11.6015 35.0768 11.2959 35.162 11.0689L35.3678 12.0008C35.3678 12.0008 35.9507 14.5805 36.0725 15.1216H33.545V15.1208Z" fill="white"/>
<path d="M2.09961 8.36891L2.13825 8.14384L7.04889 8.14709C7.35397 8.11292 7.66155 8.1864 7.9151 8.35403C8.16865 8.52166 8.35113 8.77217 8.42901 9.05953L9.46557 13.8817C9.48237 13.9272 9.49833 13.9735 9.51261 14.019L9.83013 15.5165L12.8113 8.14709H16.0377L11.2438 18.933H8.02161L5.31933 9.56571C4.30702 9.02768 3.2239 8.62507 2.09961 8.36891Z" fill="white"/>
</svg>
